<?xml version="1.0" encoding="UTF-8"?>
<svg id="Capa_1" xmlns="http://www.w3.org/2000/svg" version="1.1" viewBox="0 0 35.79 35.79">
  <!-- Generator: Adobe Illustrator 29.8.6, SVG Export Plug-In . SVG Version: 2.1.1 Build 1)  -->
  <defs>
    <style>
      .st0 {
        fill: #003565;
      }
    </style>
  </defs>
  <path class="st0" d="M30.42,20.41c.57-1.65,1.03-3.43,1.35-4.98.32-1.55.49-2.84.44-4.22-.04-1.38-.31-2.86-.63-3.92-.34-1.05-.82-1.92-1.35-2.51-.54-.61-1.12-1.16-1.89-1.64-.77-.48-1.61-.82-2.7-.96-1.09-.15-2.48,0-3.55.17-1.07.18-1.9.56-2.75.95-.82.39-1.64.95-2.31,1.57-.68.63-1.23,1.33-1.68,2.04s-.73,1.48-.96,2.22c-.23.74-.37,1.48-.37,2.28-.02.81.1,1.62.29,2.4.18.78.43,1.48.85,2.11.43.65.9,1.18,1.48,1.61.59.43,1.23.81,1.93,1.04s1.54.31,2.27.32c.73.02,1.34-.17,2.07-.35.74-.2,1.49-.63,2.1-1.04.63-.4,1.2-.84,1.59-1.37.4-.52.73-.9.98-1.54.23-.62.37-1.31.4-1.99.04-.7-.02-1.35-.1-1.88-.06-.52-.29-.76-.38-1.15-.31.32-.51.48-.9.63-.38.17-.81.28-1.24.26-.45-.02-.96-.17-1.38-.43-.45-.26-.89-.65-1.12-1.1-.24-.44-.33-1-.26-1.48.06-.5.23-1,.57-1.39.35-.4.93-.76,1.5-.92.6-.16,1.23-.05,1.76.09.52.15.9.37,1.29.7.38.32.76.76,1.03,1.34s.43,1.32.48,2.01c.07.7.2,1.31.2,1.93-.02.62-.04,1.49-.18,2.54-.13,1.05-.49,2.32-.87,3.66-.35,1.34-.9,2.44-1.43,3.53-.54,1.06-1.23,2.04-1.95,2.94-.72.89-1.57,1.84-2.44,2.55-.85.7-1.54,1.23-2.42,1.62-.87.39-1.75.78-2.73.9-.99.12-2.07.13-3.17-.21-1.1-.34-1.89-.93-2.77-1.83s-1.48-2.31-1.86-3.56c-.4-1.27-.61-3.26-.45-5.05.17-1.79.43-3.21.94-4.88.52-1.7,1.16-3,1.82-4.05.66-1.07,1.22-2.01,1.9-2.8.68-.79,1.38-1.51,2.03-2.05.62-.52,1.18-1.15,1.83-1.57-.9.16-1.78.52-2.92,1.07-1.16.55-2.61,1.43-3.84,2.27-1.23.85-2.21,1.86-3.11,2.71-.9.84-1.66,1.78-2.32,2.7-.65.93-1.27,1.81-1.75,2.89-.49,1.1-.87,2.29-1.07,3.43-.23,1.12-.27,2.21-.23,3.25.05,1.04.17,2.04.41,3,.24.94.57,2.07,1.05,2.99.49.9,1.15,1.82,1.81,2.6.67.78,1.33,1.16,2.05,1.68.7.52,1.42.94,2.25,1.28.83.35,1.66.55,2.69.68,1,.12,2.18.2,3.26.09,1.09-.09,2.16-.26,3.17-.52,1-.27,1.94-.65,2.78-1.05.84-.43,1.56-.89,2.32-1.53.78-.65,1.6-1.45,2.32-2.39.74-.94,1.4-2.03,2.06-3.31.65-1.28,1.31-2.76,1.87-4.39h-.04Z"/>
</svg>