<?xml version="1.0" encoding="UTF-8"?>
<svg id="Objects" xmlns="http://www.w3.org/2000/svg" xmlns:xlink="http://www.w3.org/1999/xlink" version="1.1" viewBox="0 0 567.42 89.73">
  <!-- Generator: Adobe Illustrator 29.8.6, SVG Export Plug-In . SVG Version: 2.1.1 Build 1)  -->
  <defs>
    <style>
      .st0 {
        mask: url(#mask);
      }

      .st1, .st2, .st3 {
        fill: #003565;
      }

      .st4 {
        font-size: 12px;
      }

      .st4, .st5 {
        font-family: Avenir-Black, Avenir;
        font-weight: 800;
      }

      .st6 {
        filter: url(#luminosity-invert-noclip);
      }

      .st7 {
        fill: #fff;
      }

      .st8 {
        fill: none;
        stroke: #003565;
        stroke-miterlimit: 10;
        stroke-width: 2.09px;
      }

      .st5 {
        font-size: 11.92px;
      }

      .st2 {
        opacity: .7;
      }

      .st3 {
        opacity: .4;
      }

      .st9 {
        font-size: 9.52px;
      }

      .st9, .st10 {
        font-family: Avenir-Book, Avenir;
      }

      .st10 {
        font-size: 9.58px;
      }
    </style>
    <filter id="luminosity-invert-noclip" x="8.33" y="8.81" width="54.13" height="43.5" color-interpolation-filters="sRGB" filterUnits="userSpaceOnUse">
      <feColorMatrix result="cm" values="-1 0 0 0 1 0 -1 0 0 1 0 0 -1 0 1 0 0 0 1 0"/>
      <feFlood flood-color="#fff" result="bg"/>
      <feBlend in="cm" in2="bg"/>
    </filter>
    <mask id="mask" x="8.33" y="8.81" width="54.13" height="43.5" maskUnits="userSpaceOnUse">
      <g class="st6">
        <g>
          <circle class="st7" cx="42.1" cy="47.92" r="2.31"/>
          <circle class="st7" cx="47.51" cy="47.92" r="2.31"/>
          <circle class="st7" cx="52.93" cy="47.92" r="2.31"/>
        </g>
      </g>
    </mask>
  </defs>
  <g>
    <text class="st1" transform="translate(10.16 70.48)"><tspan class="st4"><tspan x="0" y="0">Pantallas</tspan></tspan><tspan class="st10"><tspan x="-.17" y="10">Individuales</tspan></tspan></text>
    <g>
      <g class="st0">
        <path class="st1" d="M56.69,8.81H14.1c-3.17,0-5.77,2.6-5.77,5.77v31.96c0,3.17,2.6,5.77,5.77,5.77h42.59c3.17,0,5.77-2.6,5.77-5.77V14.58c0-3.17-2.6-5.77-5.77-5.77ZM54.91,43.18H15.87V14.87h39.04v28.31Z"/>
      </g>
      <g>
        <path class="st1" d="M20.96,21.9h3.43v5.8h6.65v-5.8h3.43v15.55h-3.43v-6.72h-6.65v6.72h-3.43v-15.55Z"/>
        <path class="st1" d="M37.63,21.9h5.14c1.24,0,2.43.14,3.55.42,1.12.28,2.1.73,2.93,1.35.83.62,1.5,1.43,1.99,2.43.49,1,.74,2.2.74,3.62,0,1.26-.24,2.37-.71,3.33-.48.96-1.12,1.76-1.92,2.42-.81.65-1.74,1.15-2.79,1.48-1.05.34-2.16.5-3.32.5h-5.6v-15.55ZM41.06,34.28h1.78c.79,0,1.53-.08,2.21-.24.68-.16,1.27-.43,1.77-.8.5-.37.89-.86,1.18-1.47.29-.61.43-1.35.43-2.23,0-.76-.14-1.42-.43-1.99-.29-.56-.67-1.03-1.15-1.39-.48-.37-1.05-.64-1.7-.82s-1.34-.27-2.05-.27h-2.02v9.22Z"/>
      </g>
    </g>
  </g>
  <g>
    <g>
      <g>
        <path class="st3" d="M131.93,44.28h0c-2.55,2.37-6.54,2.23-8.91-.31l-14.97-15.99c-2.38-2.54-2.24-6.52.31-8.89h0c2.55-2.37,6.54-2.23,8.91.31l14.97,15.99c2.38,2.54,2.24,6.52-.31,8.89Z"/>
        <path class="st3" d="M105,19.49l-3.09-3.47c-.85-.96-.77-2.44.19-3.29h0c.96-.85,2.45-.77,3.3.19l3.09,3.47c.85.96.77,2.44-.19,3.29h0c-.96.85-2.45.77-3.3-.19Z"/>
      </g>
      <path class="st2" d="M134.25,47.57h0c-3.3,1.88-7.5.74-9.38-2.55l-11.86-20.71c-1.88-3.29-.74-7.48,2.56-9.36h0c3.3-1.88,7.5-.74,9.38,2.55l11.86,20.71c1.88,3.29.74,7.48-2.56,9.36Z"/>
      <path class="st2" d="M111.91,14.53l-2.41-4.45c-.67-1.23-.2-2.78,1.03-3.44h0c1.23-.66,2.79-.2,3.45,1.03l2.41,4.45c.67,1.23.2,2.78-1.03,3.44h0c-1.23.66-2.79.2-3.45-1.03Z"/>
      <rect class="st1" x="131.42" y="47.48" width="25.07" height="10.64" rx="4.91" ry="4.91"/>
      <g>
        <g>
          <rect class="st1" x="124.2" y="12.31" width="13.75" height="37.57" rx="6.87" ry="6.87" transform="translate(-3.33 21.93) rotate(-9.44)"/>
          <rect class="st1" x="139.27" y="24.34" width="13.71" height="37.66" rx="6.86" ry="6.86" transform="translate(190.36 -102.64) rotate(90.41)"/>
        </g>
        <rect class="st1" x="121.79" y="5.5" width="10.14" height="5.1" rx="2.55" ry="2.55" transform="translate(116.91 -118.68) rotate(81.88)"/>
      </g>
    </g>
    <text class="st1" transform="translate(108.53 70.48)"><tspan class="st4"><tspan x="0" y="0">Asientos</tspan></tspan><tspan class="st10"><tspan x=".5" y="10">Reclinables</tspan></tspan></text>
  </g>
  <g>
    <text class="st1" transform="translate(512.24 70.48)"><tspan class="st4"><tspan x="0" y="0">Aire</tspan></tspan><tspan class="st10"><tspan x="-20.51" y="10">Acondicionado</tspan></tspan></text>
    <g>
      <g>
        <path class="st1" d="M550.05,26.04c-.86.82-2.1,1.24-3.27.97-1.45-.32-2.51-1.54-3.94-1.95-1.31-.38-2.59-.04-3.74.62-1.05.6-1.97,1.35-3.2,1.53-.67.1-1.04.95-.87,1.54.2.72.87.97,1.54.87,1.34-.19,2.43-.96,3.56-1.64.41-.25.86-.52,1.34-.58.68-.09,1.3.3,1.85.64,1.35.83,2.64,1.58,4.28,1.54s3.08-.68,4.23-1.77-.6-2.88-1.77-1.77h0Z"/>
        <path class="st1" d="M550.05,30.3c-.86.82-2.1,1.24-3.27.97-1.45-.32-2.51-1.54-3.94-1.95-1.31-.38-2.59-.04-3.74.62-1.05.6-1.97,1.35-3.2,1.53-.67.1-1.04.95-.87,1.54.2.72.87.97,1.54.87,1.34-.19,2.43-.96,3.56-1.64.41-.25.86-.52,1.34-.58.68-.09,1.3.3,1.85.64,1.35.83,2.64,1.58,4.28,1.54s3.08-.68,4.23-1.77-.6-2.88-1.77-1.77h0Z"/>
        <path class="st1" d="M550.05,34.74c-.86.82-2.1,1.24-3.27.97-1.45-.32-2.51-1.54-3.94-1.95-1.31-.38-2.59-.04-3.74.62-1.05.6-1.97,1.35-3.2,1.53-.67.1-1.04.95-.87,1.54.2.72.87.97,1.54.87,1.34-.19,2.43-.96,3.56-1.64.41-.25.86-.52,1.34-.58.68-.09,1.3.3,1.85.64,1.35.83,2.64,1.58,4.28,1.54s3.08-.68,4.23-1.77-.6-2.88-1.77-1.77h0Z"/>
      </g>
      <path class="st1" d="M530.19,24.04c.61-.35,1.23-.68,1.83-1.06.51-.32.87-.73.85-1.37.01,0,.03,0,.04,0v-.45s-.03-.02-.05-.02h0c.01-.29-.05-.56-.21-.81-.54-.83-1.6-1.07-2.54-.54-.6.33-1.19.69-1.79,1.03-.47.26-.49.25-.5-.31,0-.61.02-1.23,0-1.84-.05-1.36-1.51-2.19-2.71-1.56-.77.41-1.02,1.1-1.03,1.91-.02,1.21-.02,2.42,0,3.64,0,.42-.12.68-.5.9-2.1,1.21-4.21,2.41-6.3,3.64-.06.04-.12.09-.21.03-.07-.15-.03-.32-.03-.48,0-2.05-.02-4.1,0-6.15.02-1.68-.3-1.23,1.27-2.16.82-.49,1.66-.95,2.49-1.44.79-.46,1.18-1.2,1.05-1.92-.24-1.35-1.55-2.01-2.76-1.38-.57.3-1.12.63-1.68.95-.34.19-.37.18-.37-.21,0-.78.02-1.56,0-2.33-.03-.99-.71-1.7-1.64-1.77,0-.02,0-.03,0-.05h-.45s0,.05,0,.08h0c-.93.18-1.5.84-1.51,1.78,0,.94,0,1.89,0,2.89,0,0-.02.01-.03.02-.73-.42-1.42-.8-2.1-1.2-.35-.2-.71-.32-1.11-.28-.76.08-1.37.6-1.54,1.3-.18.77.11,1.51.8,1.92,1.21.71,2.42,1.41,3.64,2.1.24.13.33.28.33.56-.01,2.62,0,5.24,0,7.86,0,.09.04.2-.07.3-2.35-1.36-4.69-2.71-7.05-4.06-.21-.12-.18-.28-.18-.45,0-1.41,0-2.81,0-4.22,0-1.1-.73-1.86-1.75-1.86-1.02,0-1.74.76-1.74,1.86,0,.82,0,1.65,0,2.53,0,0-.01,0-.02.01-.9-.52-1.74-1.02-2.59-1.5-.92-.51-1.99-.2-2.45.71-.42.82-.14,1.79.69,2.29.81.49,1.64.95,2.51,1.46-.75.44-1.45.83-2.13,1.25-.65.4-.97,1.12-.82,1.79.27,1.23,1.5,1.79,2.6,1.17,1.17-.65,2.33-1.33,3.49-2.01.25-.15.44-.16.69,0,.96.57,1.93,1.12,2.9,1.68,1.33.77,2.66,1.54,4.02,2.33,0,.01,0,.02,0,.04-.13.08-.23.15-.33.21-2.16,1.24-4.32,2.48-6.47,3.74-.27.16-.46.15-.72,0-1.19-.71-2.39-1.4-3.6-2.08-.7-.39-1.52-.28-2.07.25-.56.54-.7,1.32-.37,2.01.18.38.49.63.84.84.68.39,1.35.78,2.06,1.19,0,0,0,0,0,.01-.93.54-1.8,1.02-2.65,1.53-.74.44-1.06,1.23-.84,1.99.33,1.12,1.54,1.61,2.59,1.02.87-.48,1.72-.99,2.63-1.52.01,0,.02.01.03.02,0,.35,0,.63,0,.92,0,.52,0,1.05,0,1.57,0,1.01.78,1.79,1.74,1.79.94,0,1.73-.77,1.74-1.75.02-1.39.01-2.78,0-4.18,0-.28.07-.45.33-.6,2.2-1.26,4.4-2.53,6.59-3.79.11-.06.2-.19.36-.14,0,.04.02.09.02.13,0,2.65,0,5.3,0,7.95,0,.23-.09.34-.27.45-1.22.69-2.43,1.39-3.64,2.1-.66.38-1,1.07-.9,1.72.2,1.32,1.49,1.94,2.67,1.28.68-.38,1.35-.77,2.08-1.2.02,0,.04.02.06.04,0,.97,0,1.87,0,2.77,0,1.13.71,1.92,1.74,1.92,1.03,0,1.75-.77,1.75-1.9,0-.93,0-1.87,0-2.8.06-.01.08-.02.09-.02.67.38,1.35.77,2.02,1.16.27.16.56.28.88.29.79.04,1.52-.46,1.76-1.2.25-.79-.04-1.6-.79-2.05-1.22-.72-2.45-1.43-3.68-2.13-.21-.12-.29-.24-.29-.49.01-1.09,0-2.18,0-3.28v-4.67s.02-.01.03-.02c.09.04.15.07.2.1,2.27,1.31,4.54,2.63,6.82,3.93.23.13.25.28.25.51,0,1.33-.01,2.66,0,4,0,1.07.78,1.88,1.77,1.86.99-.02,1.71-.79,1.71-1.86,0-.76,0-1.51,0-2.33,0,0,0,0,0,0,.85.49,1.64.95,2.43,1.4.26.15.52.28.83.31.98.08,1.55-.45,1.93-1.26v-.9c-.07-.55-.39-.91-.85-1.18-.7-.41-1.4-.81-2.09-1.22-.1-.06-.26-.08-.26-.22,0-.14.16-.16.25-.22.6-.35,1.2-.68,1.78-1.05.8-.51,1.11-1.37.81-2.17-.44-1.16-1.68-1.6-2.76-.97-1.15.67-2.32,1.32-3.45,2-.32.19-.58.2-.91,0-.63-.38-1.27-.74-1.9-1.11-1.44-.83-2.88-1.65-4.31-2.49-.38-.23-.38-.26,0-.48.53-.31,1.07-.61,1.6-.92,1.59-.92,3.19-1.84,4.78-2.77.29-.17.55-.18.83.01.36.24.74.45,1.12.66.78.44,1.55.91,2.34,1.34.95.51,2.05.23,2.54-.64.53-.93.24-1.98-.7-2.56-.2-.13-.41-.24-.62-.36-.44-.26-.89-.52-1.34-.78.15-.19.31-.24.45-.32Z"/>
    </g>
  </g>
  <g>
    <text class="st1" transform="translate(214 70.48)"><tspan class="st4"><tspan x="0" y="0">Audio</tspan></tspan><tspan class="st10"><tspan x="-3.81" y="10">Individual</tspan></tspan></text>
    <g>
      <g>
        <rect class="st1" x="255.36" y="16.22" width="2.34" height="11.81" rx="1.07" ry="1.07"/>
        <rect class="st1" x="251.83" y="17.51" width="2.34" height="9.24" rx="1.07" ry="1.07"/>
        <rect class="st1" x="248.31" y="18.92" width="2.34" height="6.41" rx="1.07" ry="1.07"/>
      </g>
      <g>
        <rect class="st1" x="204.08" y="9.52" width="2.34" height="11.81" rx="1.07" ry="1.07" transform="translate(410.49 30.85) rotate(-180)"/>
        <rect class="st1" x="207.61" y="10.81" width="2.34" height="9.24" rx="1.07" ry="1.07" transform="translate(417.55 30.85) rotate(-180)"/>
        <rect class="st1" x="211.14" y="12.22" width="2.34" height="6.41" rx="1.07" ry="1.07" transform="translate(424.61 30.85) rotate(-180)"/>
      </g>
      <g>
        <g>
          <path class="st1" d="M226.98,55.94h0c.64,0,1.16.64,1.16,0v-31.8c0-.64-.52-1.16-1.16-1.16h0c-.64,0-1.16.52-1.16,1.16v31.8c0,.64.52,0,1.16,0Z"/>
          <rect class="st8" x="216.42" y="4.89" width="5.86" height="19.79" rx="2.19" ry="2.19"/>
          <rect class="st1" x="223.62" y="12.56" width="6.44" height="24.52" rx="3.22" ry="3.22"/>
          <path class="st1" d="M223.24,7.22c-.46,0-.91.06-1.36.13v15.14s0,0,0,0c.44.08.89.13,1.36.13,4.32,0,7.82-3.45,7.82-7.71s-3.5-7.71-7.82-7.71Z"/>
        </g>
        <g>
          <path class="st1" d="M235.74,55.94h0c-.64,0-1.16.64-1.16,0v-24.44c0-.64.52-1.16,1.16-1.16h0c.64,0,1.16.52,1.16,1.16v24.44c0,.64-.52,0-1.16,0Z"/>
          <rect class="st8" x="240.44" y="12.25" width="5.86" height="19.79" rx="2.19" ry="2.19" transform="translate(486.74 44.29) rotate(180)"/>
          <rect class="st1" x="232.65" y="19.92" width="6.44" height="24.52" rx="3.22" ry="3.22" transform="translate(471.75 64.35) rotate(-180)"/>
          <path class="st1" d="M239.47,14.58c.46,0,.91.06,1.36.13v15.14s0,0,0,0c-.44.08-.89.13-1.36.13-4.32,0-7.82-3.45-7.82-7.71s3.5-7.71,7.82-7.71Z"/>
        </g>
      </g>
    </g>
  </g>
  <g>
    <text class="st1" transform="translate(416.27 70.48)"><tspan class="st4"><tspan x="0" y="0">WC</tspan></tspan><tspan class="st10"><tspan x="-10.56" y="10">Sanitarios</tspan></tspan></text>
    <g>
      <g>
        <path class="st1" d="M440.35,21.45l-10.98,16.57c-.48.73.04,1.7.91,1.7h21.96c.87,0,1.39-.97.91-1.7l-10.98-16.57c-.43-.65-1.39-.65-1.82,0Z"/>
        <circle class="st1" cx="441.26" cy="13.85" r="6.14"/>
        <g>
          <rect class="st1" x="435.38" y="40.66" width="4.25" height="12.79" rx="1.8" ry="1.8"/>
          <rect class="st1" x="442.89" y="40.66" width="4.25" height="12.79" rx="1.8" ry="1.8"/>
        </g>
      </g>
      <g>
        <circle class="st1" cx="409.7" cy="14.59" r="6.14"/>
        <g>
          <rect class="st1" x="403.82" y="40.66" width="4.25" height="12.79" rx="1.8" ry="1.8"/>
          <rect class="st1" x="411.33" y="40.66" width="4.25" height="12.79" rx="1.8" ry="1.8"/>
        </g>
        <path class="st1" d="M414.81,40.35l-10.73-.15c-1.07-.02-1.97-1.19-2.09-2.76l-2.54-12.85c-.15-1.9.88-3.58,2.18-3.56l16.23.19c1.32.02,2.3,1.75,2.07,3.66l-2.96,12.81c-.18,1.54-1.1,2.67-2.16,2.66Z"/>
      </g>
      <rect class="st1" x="423.87" y="7.67" width="3.21" height="45.78" rx="1.47" ry="1.47"/>
    </g>
  </g>
  <g>
    <text class="st1" transform="translate(297.18 70.75)"><tspan class="st5"><tspan x="0" y="0">Conexiones</tspan></tspan><tspan class="st9"><tspan x="12.66" y="9.93">Eléctricas</tspan></tspan></text>
    <g>
      <path class="st1" d="M330.78,53.74c-.55-.22-1.08-.48-1.33-1.08-.42-1-.08-1.9.97-2.52,1.07-.64,2.04-1.41,2.76-2.45,1.1-1.58,1.26-3.27.53-5.04-.04-.09-.1-.16-.14-.22-.81.3-1.58.65-2.38.88-1.05.31-2.12.33-3.11-.27-.17-.11-.36-.21-.49-.36-.21-.25-.43-.22-.71-.16-1.41.31-2.81.36-4.17-.27-.96-.45-1.76-1.12-2.35-1.98-.73-1.08-1.39-2.22-2.05-3.35-1.14-1.94-2.26-3.89-3.38-5.84-.29-.5-.58-.99-.6-1.6-.03-1.05.44-1.82,1.32-2.32,3.1-1.8,6.22-3.58,9.33-5.37,2.54-1.47,5.08-2.94,7.63-4.4,1.22-.69,2.64-.34,3.36.87,1.08,1.8,2.11,3.62,3.15,5.43.72,1.24,1.46,2.47,2.12,3.74.79,1.5,1.11,3.08.61,4.75-.28.94-.81,1.75-1.46,2.46-.29.32-.47.59-.38,1.09.23,1.27-.3,2.32-1.19,3.17-.55.53-1.18.99-1.8,1.45-.21.16-.23.26-.12.49.92,1.87,1.2,3.82.72,5.86-.54,2.3-1.86,4.07-3.7,5.48-.51.4-1.05.76-1.59,1.12-.28.18-.6.3-.9.45h-.65ZM327.77,39.29c.37-.1,1.09-.22,1.75-.49,1.01-.42,1.99-.91,2.95-1.43,1.41-.78,2.8-1.61,3.95-2.77,1.11-1.13,1.6-2.48.92-3.98-.63-1.37-1.42-2.67-2.19-3.98-.46-.78-1.32-.93-2.1-.47-1.23.71-2.46,1.42-3.69,2.13-2.15,1.24-4.3,2.47-6.44,3.71-.78.45-1,1.24-.59,2.05.13.27.29.53.44.79.65,1.05,1.25,2.14,1.97,3.14.64.89,1.59,1.29,3.04,1.3Z"/>
      <path class="st1" d="M325.42,8.44c.76.22,1.2.77,1.57,1.43,1.23,2.18,2.49,4.33,3.74,6.5.05.08.09.17.15.29-.49.29-.97.58-1.46.86-.48.28-.96.55-1.44.83-.2.12-.32.1-.44-.1-1.32-2.3-2.66-4.6-3.98-6.91-.69-1.21-.22-2.39,1.11-2.85.03-.01.06-.04.09-.06.22,0,.43,0,.65,0Z"/>
      <path class="st1" d="M318.99,23.53c-1.06.61-2.1,1.21-3.18,1.84-.34-.59-.67-1.15-1-1.7-1.03-1.78-2.05-3.56-3.09-5.34-.53-.9-.48-1.8.16-2.45.85-.85,2.27-.69,2.88.36.97,1.66,1.93,3.33,2.89,5,.44.76.87,1.52,1.33,2.31Z"/>
      <path class="st1" d="M326.39,37.56c-.13-.22-.27-.39-.34-.59-.03-.07.07-.23.16-.28.91-.54,1.83-1.07,2.75-1.59,2.17-1.25,4.34-2.5,6.51-3.74.08-.05.17-.09.29-.15.13.23.26.46.41.72-3.27,1.89-6.51,3.76-9.77,5.64Z"/>
      <path class="st1" d="M333.79,27.82c.45.69.45.7-.22,1.09-3,1.74-5.99,3.47-8.99,5.2-.04.02-.09.03-.16.06-.13-.23-.26-.45-.4-.71,3.27-1.89,6.51-3.76,9.77-5.64Z"/>
      <path class="st1" d="M325.44,35.86s-.07-.05-.08-.07c-.4-.59-.41-.61.19-.96,1.45-.85,2.91-1.69,4.37-2.54,1.6-.93,3.21-1.85,4.86-2.8.13.23.27.47.42.73-3.27,1.89-6.5,3.76-9.75,5.63Z"/>
    </g>
  </g>
</svg>