<?xml version="1.0" encoding="UTF-8"?>
<svg id="Capa_1" xmlns="http://www.w3.org/2000/svg" version="1.1" viewBox="0 0 35.79 35.79">
  <!-- Generator: Adobe Illustrator 29.8.6, SVG Export Plug-In . SVG Version: 2.1.1 Build 1)  -->
  <defs>
    <style>
      .st0 {
        fill: #003565;
      }

      .st1 {
        fill: #fff;
      }
    </style>
  </defs>
  <g>
    <rect class="st0" x="9.23" y="7.52" width="17.32" height="25.2" rx="2.59" ry="2.59"/>
    <g>
      <rect class="st0" x="11.69" y="29.62" width="2.58" height="4.46" rx="1.05" ry="1.05"/>
      <rect class="st0" x="21.52" y="29.62" width="2.58" height="4.46" rx="1.05" ry="1.05"/>
    </g>
    <path class="st0" d="M20.7,12.78h-5.6c-.73,0-1.33-.59-1.33-1.32V3.67c0-.73.59-1.32,1.33-1.32h5.6c.73,0,1.33.59,1.33,1.32v7.78c0,.73-.59,1.32-1.33,1.32ZM15.09,3.35c-.18,0-.33.15-.33.32v7.78c0,.18.15.32.33.32h5.6c.18,0,.33-.15.33-.32V3.67c0-.18-.15-.32-.33-.32h-5.6Z"/>
    <rect class="st0" x="16.12" y="1.72" width="3.54" height="2.04"/>
  </g>
  <path class="st1" d="M24.39,28.7h-1V12.33c0-.77-.62-1.39-1.39-1.39h-8.21c-.77,0-1.39.62-1.39,1.39v16.37h-1V12.33c0-1.32,1.07-2.39,2.39-2.39h8.21c1.32,0,2.39,1.07,2.39,2.39v16.37Z"/>
  <rect class="st1" x="15.69" y="13.08" width="4.4" height="1.4"/>
</svg>