<?xml version="1.0" encoding="UTF-8"?>
<svg id="Capa_1" xmlns="http://www.w3.org/2000/svg" version="1.1" viewBox="0 0 35.79 35.79">
  <!-- Generator: Adobe Illustrator 29.8.6, SVG Export Plug-In . SVG Version: 2.1.1 Build 1)  -->
  <defs>
    <style>
      .st0 {
        fill: #003565;
      }
    </style>
  </defs>
  <path class="st0" d="M17.9,31.9c-.09,0-.17-.01-.26-.03-7.83-2.01-13.29-9.07-13.29-17.16,0-1.88.3-3.75.88-5.54.14-.43.51-.73,1-.72,4.06.07,7.98-1.46,10.94-4.28.4-.38,1.03-.38,1.43,0,2.91,2.76,6.73,4.28,10.75,4.28h.21c.45,0,.85.29.99.72.59,1.78.88,3.64.88,5.54,0,8.09-5.47,15.15-13.29,17.16-.09.02-.17.03-.26.03ZM6.99,10.53c-.38,1.36-.57,2.76-.56,4.17,0,7.05,4.7,13.21,11.47,15.08,6.77-1.86,11.47-8.02,11.47-15.07,0-1.42-.19-2.83-.56-4.18-4.02-.13-7.84-1.6-10.9-4.2-3.06,2.61-6.88,4.08-10.9,4.2ZM16.85,23.05c-.28,0-.54-.11-.74-.31l-3.13-3.13c-.41-.41-.41-1.07,0-1.47s1.07-.41,1.47,0l2.26,2.26,4.5-6.3c.34-.47.99-.58,1.45-.24.47.33.58.99.24,1.45l-5.21,7.3c-.18.25-.46.41-.76.43-.03,0-.06,0-.09,0Z"/>
</svg>