<?xml version="1.0" encoding="UTF-8"?>
<svg id="Capa_1" xmlns="http://www.w3.org/2000/svg" version="1.1" viewBox="0 0 354.35 34.49">
  <!-- Generator: Adobe Illustrator 29.8.6, SVG Export Plug-In . SVG Version: 2.1.1 Build 1)  -->
  <defs>
    <style>
      .st0 {
        fill: #003565;
      }

      .st1 {
        fill: #c02836;
      }
    </style>
  </defs>
  <g>
    <path class="st0" d="M162.18,15.51c-.36-.68-.96-1.4-1.6-1.79-.64-.4-1.33-.71-2.25-.78-.93-.07-2.08.11-3.12.38-1.05.27-1.98.89-2.76,1.41-.76.53-1.41,1.13-1.95,1.8-.56.66-1.03,1.38-1.68,2.49-.67,1.1-1.36,2.63-2.12,3.7-.78,1.07-1.11,1.35-1.59,1.83-.48.46-1.18.94-1.71,1.04-.35.06-.63-.03-.79-.2-.16-.19-.24-.62.05-1.27.3-.65.84-1.61,1.41-2.6l10.14-18.39h-4.75l-6.39,11.82c-.47-.44-1.1-.89-1.7-1.16-.59-.27-1.06-.45-1.68-.54-.6-.09-1.45-.2-2.18-.11-.74.09-1.38.27-2.26.56-.88.29-1.68.82-2.48,1.32-.79.5-1.55,1.1-2.22,1.74-.66.65-1.24,1.35-1.67,2.03-.45.69-.75,1.36-.96,2.07-.22.72-.33,1.46-.32,2.22,0,.75.14,1.5.41,2.31.27.81.62,1.46,1.3,2.1.7.64,1.36,1.12,2.41,1.31,1.05.2,2.8.22,3.67,0,1.07-.27,2.02-.75,2.85-1.47.4.68.8,1.05,1.46,1.34.67.29,1.72.34,2.4.23.68-.1,1.17-.16,1.79-.5.64-.34,1.39-.74,1.94-1.24.55-.49,1.16-.94,1.54-1.53.1.31.25.7.52,1.07.28.38.4.61.89,1,.49.4,1.08.73,1.72.95.66.22,1.36.25,2.15.27.81.03,1.68.06,2.59-.13.91-.19,1.85-.52,2.58-.81.74-.29,1.25-.54,1.76-.84l.97-2.77c-.81.38-1.63.71-2.35.96-.72.25-1.32.42-2,.52-.67.11-1.42.13-2.12.02s-1.37-.35-1.78-.73c-.4-.38-.53-.87-.58-1.27-.05-.41.15-1.07.27-1.35.57.3.97.89,1.63,1.08.66.2,1.38.36,2.32.37.95.02,2.11-.12,3.08-.57.98-.45,1.76-1.2,2.3-1.84.54-.65.82-1.17,1.01-1.79.19-.61.27-1.32.27-2.07s-.1-1.56-.47-2.24ZM139.09,22.99c-1.81,2.45-4.38,3.62-5.78,2.62-1.37-1-1.04-3.78.77-6.23,1.8-2.45,4.38-3.62,5.76-2.62,1.39.99,1.04,3.78-.76,6.23ZM159.35,18.58c-.09.51-.34.94-.78,1.39-.43.45-1.07.9-1.7,1.05-.64.15-1.28,0-1.78-.28-.49-.28-.84-.73-.88-1.27-.04-.55.24-1.21.57-1.73.34-.53.76-.94,1.27-1.19.52-.26,1.14-.35,1.7-.27.55.09,1.06.35,1.34.78.28.43.34,1.01.25,1.52Z"/>
    <g>
      <path class="st0" d="M26.12,18.15c.47-1.35.84-2.81,1.11-4.08.26-1.27.4-2.33.36-3.46-.03-1.13-.25-2.34-.52-3.21-.28-.86-.67-1.57-1.11-2.06-.44-.5-.92-.95-1.55-1.34-.63-.39-1.32-.67-2.21-.79-.89-.12-2.03,0-2.91.14-.88.15-1.56.46-2.25.78-.67.32-1.34.78-1.89,1.29-.56.52-1.01,1.09-1.38,1.67-.37.58-.6,1.21-.79,1.82-.19.61-.3,1.21-.3,1.87-.02.66.08,1.33.24,1.97.15.64.35,1.21.7,1.73.35.53.74.97,1.21,1.32.48.35,1.01.66,1.58.85.57.19,1.26.25,1.86.26.6.02,1.1-.14,1.7-.29.61-.16,1.22-.52,1.72-.85.52-.33.98-.69,1.3-1.12.33-.43.6-.74.8-1.26.19-.51.3-1.07.33-1.63.03-.57-.02-1.11-.08-1.54-.05-.43-.24-.62-.31-.94-.25.26-.42.39-.74.52-.31.14-.66.23-1.02.21-.37-.02-.79-.14-1.13-.35-.37-.21-.73-.53-.92-.9-.2-.36-.27-.82-.21-1.21.05-.41.19-.82.47-1.14.29-.33.76-.62,1.23-.75.49-.13,1.01-.04,1.44.07.43.12.74.3,1.06.57.31.26.62.62.84,1.1.22.48.35,1.08.39,1.65.06.57.16,1.07.16,1.58-.02.51-.03,1.22-.15,2.08-.11.86-.4,1.9-.71,3-.29,1.1-.74,2-1.17,2.89-.44.87-1.01,1.67-1.6,2.41-.59.73-1.29,1.51-2,2.09-.7.57-1.26,1.01-1.98,1.33-.71.32-1.43.64-2.24.74-.81.1-1.7.11-2.6-.17-.9-.28-1.55-.76-2.27-1.5-.72-.74-1.21-1.89-1.52-2.92-.33-1.04-.5-2.67-.37-4.14.14-1.47.35-2.63.77-4,.43-1.39.95-2.46,1.49-3.32.54-.88,1-1.65,1.56-2.29.56-.65,1.13-1.24,1.66-1.68.51-.43.97-.94,1.5-1.29-.74.13-1.46.43-2.39.88-.95.45-2.14,1.17-3.15,1.86-1.01.7-1.81,1.52-2.55,2.22-.74.69-1.36,1.46-1.9,2.21-.53.76-1.04,1.48-1.43,2.37-.4.9-.71,1.88-.88,2.81-.19.92-.22,1.81-.19,2.66.04.85.14,1.67.34,2.46.2.77.47,1.7.86,2.45.4.74.94,1.49,1.48,2.13.55.64,1.09.95,1.68,1.38.57.43,1.16.77,1.84,1.05.68.29,1.36.45,2.2.56.82.1,1.79.16,2.67.07.89-.07,1.77-.21,2.6-.43.82-.22,1.59-.53,2.28-.86.69-.35,1.28-.73,1.9-1.25.64-.53,1.31-1.19,1.9-1.96.61-.77,1.15-1.66,1.69-2.71.53-1.05,1.07-2.26,1.53-3.6Z"/>
      <path class="st0" d="M121.14,14.93c.36-.17.73-.33,1.19-.39.44-.05.89.05,1.44.1l-1.23-2.65c-1.58-.13-3.16-.07-4.56.15-1.41.21-2.63.59-3.79,1.1-1.16.5-2.25,1.13-3.29,1.89-1.04.76-2.03,1.65-3.03,2.99-1.01,1.35-2.06,3.15-2.86,4.35-.78,1.19-1.3,1.78-1.69,2.15-.4.35-.66.48-.89.5-.24.02-.47-.07-.62-.23-.14-.15-.19-.37-.18-.58s.12-.39.22-.57l6.21-10.76h-4.9l-5.65,10.25c-.11.19-1,1.1-1.65,1.22-.19.05-.37.06-.52.05-.14-.01-.26-.02-.4-.09-.14-.06-.3-.16-.37-.31-.1-.16-.15-.37-.07-.52l6.01-10.64h-5.07l-3.64,6.41c-.57.98-1.57,1.64-2.16,2.15-.6.51-.86.71-1.25.92.69-1.36,1.06-2.72,1.11-3.87.05-1.16,0-1.92-.29-2.66-.31-.75-.89-1.72-1.57-2.21-.7-.49-1.31-.64-2.17-.76-.84-.12-1.62-.04-2.26.08-.65.12-1.35.45-1.82.62l5.74-10.42h-5.09l-11.48,20.23c-.15.27-.32.52-.57.74-.26.21-.56.4-.88.49-.31.09-.64.08-.9-.01-.29-.11-.52-.31-.6-.59-.08-.28,0-.63.26-1.05l5.65-10.03h-4.7l-6.15,11.06c-.19.35-.5.67-.85.8-.35.14-.72.11-1.01.03-.3-.09-.51-.22-.6-.43-.09-.21-.08-.52.05-.75l3.34-5.84c.33-.59.61-1.19.65-1.3.2-.51-.24-1.69-.47-2.13-.24-.43-.66-.81-1.09-1.03-.44-.23-.8-.34-1.36-.31-.57.04-1.26.2-1.73.46-.49.27-.93.49-1.27.82l.81-1.45h-5.02l-5.92,10.71c-.19.32-.41.64-.64.86-.22.21-.47.35-.72.39-.25.04-.52.01-.72-.07-.19-.09-.3-.23-.37-.4-.07-.17-.09-.38-.06-.6.03-.21.13-.43.26-.63l3.22-5.79c.24-.43.34-.92.34-1.43,0-.5-.27-1-.5-1.42-.22-.42-.65-.81-1.02-1.05-.35-.25-.52-.35-.92-.45-.38-.1-.76-.12-1.11-.1-.36.02-.7.08-1.03.16-.34.1-.64.21-1.04.47-.41.26-.74.62-1.19,1.05-.22-.41-.72-.74-1.05-.99-.32-.27-.67-.42-1-.53-.34-.1-.67-.15-1.05-.14-.37.01-.79.08-1.21.22-.42.13-.84.33-1.24.6-.4.28-.57.49-.91.9-.15-.3-.49-.51-.77-.74-.28-.22-.68-.35-1.07-.5-.38-.16-.99-.2-1.38-.27-.43-.07-.78-.01-1.29.1-.51.11-1.08.3-1.58.54-.49.24-.93.53-1.32.85-.37.31-.7.67-.98,1.1-.29.44-.41.74-.59,1.21l-.04.04s-.19,1.28-.19,1.32c.26-.15.29-.06.58-.11.28-.05.54-.04.77.02.22.06.39.18.54.32.14.13.26.29.2.61-.04.32-.28.79-.52,1.22l-4.89,8.66h4.89l5.3-9.29c.21-.35.42-.71.68-.94.25-.23.51-.34.78-.37.27-.03.57.04.72.23.15.19.17.52.04.74l-5.43,9.66h5.02l5.35-9.62c.12-.21.23-.42.48-.64.24-.22.58-.45.9-.49.33-.02.65.16.76.45.11.29.03.67-.17,1.16-.21.47-.54,1.01-.86,1.56l-2.16,3.79c-.22.41-.35.88-.3,1.41.07.53.32,1.1.78,1.54.46.44,1.16.74,1.82.82.66.06,1.26-.09,1.74-.27.48-.18.86-.39,1.17-.6.3-.2.82-.58,1.03-.82l-1.01,1.68h4.99l5.22-9.57c.09-.15.17-.29.31-.49.14-.19.31-.44.55-.57.25-.14.56-.17.82-.14.27.04.48.15.55.39.07.25,0,.61-.15.89l-2.71,4.77c-.2.35-.32.76-.37,1.26-.05.5-.04,1.13.13,1.65.18.52.54.94,1,1.27.47.33,1.08.53,1.78.57.71.04,1.39-.21,2.2-.53.82-.31,1.65-1.44,2.35-2,.14,1.14.57,1.77,1.02,2.11.46.35.99.4,1.73.42.71.03,1.75-.26,2.37-.57.6-.31,1.5-1.16,1.84-1.49l-1.12,2.05h5.36l1.85-3.67c.23,1.19.92,2.34,1.75,2.83.82.49,1.46.82,2.35.84.88.03,1.88-.04,2.72-.34.84-.29,1.55-.7,2.37-1.15,1.01-.56,1.59-.89,2.5-1.39.91-.51,1.43-.89,2.45-1.5.17.63.55,1.45.57,1.5.2.5.54,1.09.9,1.46.37.38.74.75,1.17,1,.42.24.62.35,1.09.41.45.05,1.44.02,1.81,0,.5-.03.92-.24,1.28-.47.37-.22.64-.42.91-.62.27-.22.5-.36.71-.63.03.14.07.4.14.52.11.21.19.37.58.63.32.2.68.3,1.31.47.6.16,2.17.12,2.45.07.69-.12,1.28-.42,1.91-.9.64-.49,1.23-1.13,1.8-1.92.58-.78,1.05-1.97,1.86-3.24.8-1.26,1.54-2.67,2.62-3.73,1.06-1.05,2.01-1.87,2.89-2.44.87-.56,1.77-1.05,2.43-1.29.67-.23,1.33-.47,1.68-.49-.35.29-.73.87-.92,1.22-.19.35-.28.8-.32,1.18-.04.38-.02.91.04,1.36.07.46.15.9.52,1.68.36.73.69,1.72.82,2.5.14.78,0,1.28-.22,1.62-.22.35-.56.53-1,.63-.44.09-1,.08-1.35-.15-.33-.23-.47-.68-.39-1.03.07-.34.35-.57.63-.72.27-.14.65-.24.92-.23.25,0,.8.06,1.04.18-.13-.39-.66-.86-.86-1.04-.36-.32-.98-.78-1.62-1.05-.62-.26-1.44-.4-2.26-.31-.81.08-1.44.37-2.03.78-.59.41-.89.88-1.13,1.46-.24.58-.27,1.25-.22,1.85.05.6.25,1.23.61,1.76.37.53.52.7,1.16,1.12.64.43,1.09.72,1.72.88.72.18,1.91.38,2.81.37.89-.01,2.7-.08,3.46-.33,1.03-.36,1.07-.41,1.75-.91.67-.51,1.15-1.01,1.51-1.67.38-.66.71-1.34.74-2.04.04-.7,0-1.64-.25-2.38-.27-.76-.57-1.35-1.22-2.03-.68-.73-1.12-1.5-1.16-2.06-.05-.66.08-1.45.3-1.8.22-.35.52-.64.86-.82ZM84.68,19.77c-.08.36-.17.69-.45,1.28-.26.59-.69,1.45-1.16,2.13-.47.68-.94,1.19-1.41,1.55-.47.37-.91.59-1.37.71-.45.12-.88.16-1.29.12-.41-.05-.79-.15-1.12-.3-.34-.15-.63-.35-.87-.69-.23-.34-.4-.79-.47-1.24-.05-.44-.02-.87.19-1.38.18-.52.5-1.11.85-1.69.34-.59.68-1.15.94-1.56.24-.41.41-.65.68-.96.28-.31.68-.67,1.1-.93.41-.25.85-.4,1.38-.46.52-.05,1.13-.02,1.61.16.47.17.84.49,1.07.87.25.38.39.82.43,1.24.03.41-.04.79-.11,1.15Z"/>
      <path class="st0" d="M71,10.71c.45.33,1.02.52,1.58.52s1.13-.18,1.58-.52c.47-.33.81-.81,1-1.34.17-.53.17-1.1,0-1.63-.19-.53-.53-1.02-1-1.34-.46-.33-1.03-.51-1.58-.51s-1.14.17-1.58.51c-.47.32-.82.81-1,1.34-.18.52-.18,1.1,0,1.63.18.52.53,1.01,1,1.34Z"/>
    </g>
    <g>
      <path class="st0" d="M211.46,10.9c.72.19,1.45.23,2.31.1.85-.13,1.8-.45,2.61-.87.82-.43,1.47-.96,2.01-1.6l-4.47-3.03c.18,1.18-.06,2.32-.46,3.22-.41.89-1.16,1.51-2,2.19"/>
      <path class="st0" d="M277.17,17.39c-.57.06-1.12,0-1.68-.05-.27-1.09-.82-2.11-1.51-2.88-.7-.76-1.55-1.26-2.47-1.56-.92-.3-1.93-.41-3.03-.2-1.11.21-2.32.74-3.49,1.59-1.18.87-2.25,2.14-3.2,3.73-.96,1.58-1.8,3.47-2.96,4.91-1.16,1.43-2.73,2.44-3.93,2.87-1.2.42-2.13.33-2.81.1-.67-.23-1.12-.85-1.35-1.25-.22-.42-.35-1.3-.32-1.9.03-.61.1-1.11.31-1.67.2-.57.44-1.13.78-1.72.35-.6.79-1.21,1.17-1.67.38-.47.69-.75,1.05-1.01.25-.19.67-.42,1.19-.4.36,0,.67.19.82.43.13.25.07.6-.15.82-.18.22-.38.31-.72.45-.32.14-1.2.13-1.29-.23,0,.05.03.97.49,1.65.4.58,1.11,1.22,1.95,1.44.84.22,1.65.16,2.34-.2.71-.39,1.36-.85,1.67-1.37.3-.53.52-1.16.61-1.72.1-.55.05-1.13-.07-1.72-.13-.59-.5-1.34-.87-1.68-.51-.49-1.15-.91-2.07-1.2-.91-.27-2.08-.42-3.19-.28-1.13.14-2.2.57-3.16,1.12-.96.54-1.78,1.2-2.54,2.06-.75.85-1.41,1.89-1.91,2.73-.51.84-.87,1.47-1.45,2.38-.58.92-1.38,2.09-1.98,2.84-.6.73-1,1.03-1.34,1.22-.35.19-.55.23-.81.24-.26.02-.38.05-.55-.04-.18-.09-.18-.08-.18-.41,0-.14.55-1,.82-1.43l5.97-10.83h-5.18l-5.17,9.27c-.77,1.18-1.44,1.76-2.08,2.36-.63.59-1.14.82-1.77.97-.63.15-1.23.37-2.01,0-.6-.3-1.14-.88-1.27-1.47-.19-.76-.2-1.42.31-2.26.55-.91,1.15-2.18,1.53-2.76.37-.58.65-.94,1.05-1.29.39-.34.89-.65,1.28-.68.4-.02.68.23.76.5.09.28-.03.51-.19.78-.17.28-.31.63-.6.82.66.22,1.18.34,1.78.31.61-.02,1.21-.2,1.66-.5.44-.28.82-.72,1.08-1.23.27-.52.42-1.11.45-1.65.02-.55-.08-1.06-.3-1.51-.23-.46-.58-.86-1.12-1.17-.55-.31-1.28-.45-1.93-.47-.65-.02-1.24.07-1.76.3-.52.23-1.04.43-1.41.73-.38.28-.76.5-1.05.85-.3.36-.81.94-1.1,1.41-.29-.75-.37-1.44-.8-1.93-.45-.49-.92-.67-1.39-.88-.46-.2-1.07-.27-1.55-.27-.37,0-1.05.11-1.56.23-.59.14-1.47.5-2.47,1.04-1.08.59-2.03,1.55-3.36,3.03-1.29,1.47-2.58,3.29-3.63,4.57-1.03,1.28-1.8,2.12-2.57,2.71-.77.58-1.56.81-2.37.99-.87.19-1.85.21-2.61.27-.69.05-1.73-.18-2.19-.45-.49-.28-.82-1-.86-1.45-.07-.45.23-1.16.45-1.45.51.41,1.68,1.32,2.41,1.45.74.12,1.84.19,2.67.04.8-.15,1.84-.52,2.56-.95.7-.42,1.35-1.13,1.87-1.8.52-.69.82-1.75,1-2.53.19-.77.1-1.23,0-1.91-.09-.68-.48-1.36-.87-1.9-.39-.54-1.01-.99-1.65-1.36-.66-.36-1.33-.56-2.1-.69-.3-.05-1.36-.03-2.05.11-.86.18-2.04.75-2.88,1.31-.84.56-1.48,1.02-2.39,2.03-.72.82-1.75,2.21-2.46,3.53-.72,1.33-1.27,2.99-1.76,3.8-.47.81-.67,1.03-.95,1.29-.3.25-.78.45-1.07.46-.29.01-.58-.15-.64-.44-.07-.28.07-.67.27-1.15.18-.47.4-1.03,1.73-4.53,1.33-3.5,3.4-9.43,5.84-15.87h-5.02l-5.77,8.85,1.33-8.87h-4.4l-11.81,18.69c-.36.58-.87,1.07-1.39,1.43-.51.36-1.04.61-1.67.65-.63.04-1.37-.14-1.82-.46-.46-.31-.65-.78-.57-1.19.07-.4.39-.75.81-.97.42-.22.98-.31,1.36-.36.39-.05,1.05.24,1.28.29v-.04c-.32-.72-1.1-1.58-1.75-2.08-.64-.5-1.58-.85-2.42-.98-.86-.15-1.76-.07-2.61.17-.86.26-1.67.69-2.28,1.28-.6.59-1.03,1.36-1.27,2.15-.23.8-.35,1.67-.18,2.51.17.84.54,1.66,1.06,2.35.54.69,1.25,1.31,2.1,1.71.83.39,1.9.68,3.04.7,1.15.01,2.41-.28,3.66-.75,1.25-.48,2.48-1.33,3.65-2.52,1.16-1.2,2.04-2.98,3.12-4.62l4.57-7.06-3.09,14.97,10.31-14.89c-1.23,3.15-2.17,6.28-2.75,8.27-.57,1.99-.48,2.69-.35,3.38.13.68.52,1.45,1.01,1.94.49.49.91.88,1.56,1.1.67.22,1.36.24,2.1.1.74-.14,1.45-.58,2.18-1.06.72-.49,1.51-1.63,1.79-2.35-.15.38.95,1.49,1.28,1.85.38.42.87.69,1.43.94.56.25,1.22.41,1.85.53.61.13,1.21.2,1.93.14.72-.07,1.57-.28,2.44-.57.88-.31,1.78-.7,2.57-1.12.79-.43,1.48-.86,2.47-1.86.98-1,2.27-2.54,3.42-3.93,1.13-1.39,2.06-2.51,2.93-3.48.81-.9,1.43-1.69,2.1-1.92.82-.26,1.36-.22,1.87-.03.3.11.66.26.96.53.3.28.66.9.73,1.4.1.55,0,1.07-.18,1.63-.18.57-.52.9-.83,1.6-.31.7-.8,1.43-1.19,2.06-.38.63-.62,1.03-1.01,1.21-.35.15-.69.2-.95.03-.25-.17-.39-.45-.36-.74.03-.3.18-.62.45-.89.26-.26.59-.44.98-.49-.75-.46-1.66-.82-2.47-.83s-1.58.18-2.15.53c-.59.36-.96.87-1.24,1.44-.27.57-.4,1.25-.34,1.89.07.65.3,1.26.73,1.8.41.54.96,1.05,1.61,1.33.67.28,1.41.49,2.15.42.75-.08,1.53-.47,2.2-.91.67-.45,1.27-1.06,1.71-1.79.17.43.44.8.99,1.27.54.47,1.35,1.09,2.26,1.32.89.23,1.86.09,2.71-.11.85-.2,1.57-.45,2.2-.79.63-.34,1.23-.68,1.69-1.09.28.69.77,1.31,1.64,1.71.88.39,2.13.49,3.19.28,1.05-.22,2.08-.51,2.89-1.27.68-.63,1.63-1.47,1.88-3.25-.09.68,1.44,1.95,2,2.52.56.58,1.65,1.29,2.36,1.55.88.33,2.32.65,3.62.54,1.32-.11,2.56-.6,3.76-1.23,1.21-.63,2.09-1.5,2.98-2.6.23.6.69,1.11,1.27,1.73.59.63,1.38,1.28,2.56,1.68,1.17.4,2.61.56,3.98.32,1.37-.24,2.58-.82,3.43-1.42.87-.59,1.5-1.16,2-1.89.51-.72,1.18-1.64,1.57-2.53.37-.88.33-1.77.47-2.72.59-.15,1.17-.41,1.66-.76.51-.35.95-.79,1.3-1.24.5-.67.91-1.85,1.05-1.94-.49.32-1.49.92-2.05.99ZM207.38,18.91c.07-.46.32-.93.66-1.36.34-.42.78-.79,1.19-1.04.4-.25.79-.38,1.19-.42.4-.04.85.01,1.21.15.38.14.7.35.91.65.22.31.35.7.35,1.06-.02.35-.15.68-.39,1.03-.26.36-.62.74-1.01,1.06-.38.33-.79.58-1.28.69-.48.11-1.02.08-1.48-.03-.46-.1-.83-.29-1.07-.61-.24-.3-.38-.74-.31-1.2ZM271.49,22.96l-.04.05c-.37.66-.8.99-1.21,1.47-.43.48-.86.85-1.35,1.15-.48.3-1,.43-1.58.61-.62.2-1.28.07-1.86-.24-.56-.32-.87-.99-.94-1.81-.08-.83.09-1.8.42-2.63.31-.82.62-1.49,1-2.08.39-.59.8-.97,1.24-1.5.37.48.64,1.12,1.23,1.5.59.37,1.21.85,1.88,1.04.64.18,2.28.46,2.38,0-.19.93-.79,1.78-1.15,2.44Z"/>
      <path class="st0" d="M246.05,5.64c-.56,0-1.13.18-1.59.5-.47.34-.81.82-.99,1.35-.17.53-.17,1.1,0,1.62.18.53.52,1.01.99,1.35.46.33,1.03.51,1.59.51s1.13-.18,1.59-.51c.46-.33.82-.82.99-1.35.18-.52.18-1.09,0-1.62-.17-.54-.53-1.01-.99-1.35-.46-.32-1.03-.51-1.59-.5"/>
    </g>
  </g>
  <g>
    <g>
      <path class="st1" d="M296.22,29.19V3.32h6.44c6.43,0,9.81,2.77,9.81,8.15,0,.89-.1,1.85-.28,2.88-.75,4.13-3.25,6.59-7.58,6.59l-1.19-.05v8.3h-7.19ZM303.69,14.88c1.33,0,1.84-.53,1.91-2.37,0-1.72-.54-2.5-1.59-2.53l-.6-.04v4.95h.28Z"/>
      <path class="st1" d="M313.56,29.19V3.32h6.96v25.87h-6.96Z"/>
      <path class="st1" d="M322.08,22.85v-11.77h6.97v10.96c.13.57.37.71.87.71.5-.11.72-.39.72-.71v-10.96h6.96v18.11h-6.75v-1.24c-.74.99-2.06,1.6-4.12,1.6-2.97-.04-4.52-1.74-4.62-4.66l-.03-1.57v-.47Z"/>
      <path class="st1" d="M349.96,11.72v6.61c-.47-.49-.96-.85-1.49-1.17-.88-.58-1.5-.78-1.88-.78-.61,0-.84.14-.91.53,0,.32.04.43.54.74l.19.11,1.32.63c.58.29,1.08.62,1.53,1.04.93.92,1.43,2.31,1.43,3.77,0,1.6-.55,3.27-1.77,4.59-1.06,1.11-2.57,1.74-4.6,1.74-.59,0-1.27-.04-1.99-.18-1.06-.21-2.13-.57-3.16-1.06v-7.41c.14.22.28.43.47.64.65.83,1.44,1.46,2.09,1.74.44.18.79.26,1.07.26.19,0,.3-.05.43-.11.22-.14.32-.39.32-.6,0-.15-.03-.29-.16-.4-.12-.11-.25-.22-.45-.28l-1-.5-.18-.11c-1.99-.86-3.08-2.38-3.08-4.45,0-.78.15-1.53.4-2.38.78-2.56,2.87-4.17,6.15-4.17.46,0,.97.04,1.47.11,1.13.14,2.25.5,3.28,1.07Z"/>
    </g>
    <path class="st1" d="M292.37,21.79c0,1.65-1.35,2.99-2.99,2.99s-2.99-1.34-2.99-2.99,1.33-2.99,2.99-2.99,2.99,1.33,2.99,2.99Z"/>
  </g>
</svg>