<?xml version="1.0" encoding="UTF-8"?>
<svg id="Capa_1" xmlns="http://www.w3.org/2000/svg" version="1.1" viewBox="0 0 335.15 132.4">
  <!-- Generator: Adobe Illustrator 29.8.6, SVG Export Plug-In . SVG Version: 2.1.1 Build 1)  -->
  <defs>
    <style>
      .st0 {
        fill: #003565;
      }

      .st1 {
        fill: #c02836;
      }
    </style>
  </defs>
  <g>
    <path class="st0" d="M244.72,24.41c.78.21,1.58.26,2.51.11.93-.15,1.96-.49,2.85-.95.88-.47,1.6-1.05,2.19-1.75l-4.87-3.29c.19,1.28-.06,2.53-.5,3.5-.44.97-1.26,1.64-2.17,2.39"/>
    <path class="st0" d="M190.98,29.42c-.4-.74-1.05-1.52-1.74-1.96-.7-.43-1.46-.77-2.47-.85-1-.08-2.26.12-3.4.42-1.14.3-2.16.97-3,1.55-.83.58-1.54,1.23-2.15,1.96-.6.72-1.12,1.51-1.84,2.72-.72,1.2-1.48,2.86-2.31,4.03-.84,1.17-1.21,1.48-1.73,2-.52.51-1.27,1.03-1.85,1.14-.38.08-.7-.03-.86-.23-.18-.2-.26-.66.05-1.37.32-.71.92-1.77,1.55-2.83l11.06-20.05h-5.17l-6.97,12.88c-.52-.47-1.19-.97-1.84-1.26-.65-.29-1.17-.5-1.84-.59-.65-.1-1.57-.22-2.38-.12-.8.1-1.51.29-2.46.61-.95.32-1.83.89-2.7,1.44-.87.55-1.7,1.19-2.43,1.9-.72.7-1.34,1.46-1.82,2.21-.48.75-.82,1.49-1.05,2.26-.23.78-.36,1.6-.35,2.42.01.82.16,1.64.44,2.52.29.88.68,1.59,1.43,2.29.75.7,1.47,1.22,2.61,1.44,1.15.22,3.06.24,4.02,0,1.16-.29,2.19-.82,3.1-1.6.42.73.87,1.14,1.59,1.46.73.32,1.88.37,2.62.25.73-.12,1.27-.18,1.96-.55.68-.37,1.52-.81,2.11-1.35.59-.54,1.27-1.02,1.68-1.66.11.33.27.76.58,1.16.31.41.43.66.97,1.09.54.43,1.17.79,1.88,1.03.71.24,1.47.27,2.34.3.87.03,1.84.07,2.82-.14.99-.22,2.02-.57,2.82-.88.8-.32,1.37-.59,1.91-.92l1.06-3.02c-.88.41-1.79.78-2.58,1.05-.77.28-1.43.46-2.16.57-.74.11-1.55.14-2.33.02-.76-.12-1.48-.39-1.92-.79-.43-.41-.59-.94-.64-1.39-.06-.45.16-1.17.3-1.48.6.33,1.06.97,1.78,1.18.71.22,1.51.39,2.52.4,1.03.01,2.31-.14,3.37-.62,1.06-.49,1.92-1.31,2.51-2.01.59-.7.9-1.28,1.11-1.95.2-.67.29-1.43.29-2.25s-.11-1.7-.51-2.44ZM165.8,37.58c-1.98,2.67-4.79,3.95-6.29,2.86-1.5-1.09-1.13-4.13.84-6.79,1.97-2.67,4.79-3.95,6.28-2.86,1.51,1.09,1.13,4.13-.83,6.8ZM187.89,32.78c-.1.55-.37,1.02-.85,1.51-.47.49-1.16.98-1.85,1.15-.69.17-1.4.01-1.94-.3-.53-.32-.91-.8-.95-1.39-.05-.6.25-1.31.62-1.89.37-.58.82-1.02,1.38-1.3.57-.28,1.24-.38,1.85-.29.61.09,1.16.39,1.46.85.3.46.37,1.1.27,1.66Z"/>
    <path class="st0" d="M42.61,32.3c.5-1.47.92-3.07,1.21-4.44.28-1.39.43-2.54.4-3.78-.04-1.23-.28-2.55-.58-3.5-.3-.95-.72-1.72-1.2-2.25-.49-.54-1.01-1.04-1.71-1.46-.69-.43-1.43-.74-2.4-.87-.97-.12-2.21,0-3.17.16-.96.16-1.7.49-2.45.85-.74.36-1.46.84-2.06,1.4-.61.56-1.1,1.19-1.51,1.82-.41.63-.66,1.32-.86,1.98-.2.67-.33,1.32-.34,2.04,0,.72.09,1.45.26,2.15.17.69.38,1.33.76,1.89.39.57.8,1.05,1.33,1.44.53.38,1.1.72,1.72.92.62.21,1.37.27,2.03.29.65.02,1.19-.15,1.86-.32.66-.17,1.31-.56,1.87-.92.55-.36,1.07-.75,1.42-1.22.35-.47.66-.81.86-1.37s.34-1.17.37-1.79c.03-.61-.03-1.2-.09-1.67-.05-.47-.25-.68-.33-1.03-.27.28-.47.43-.81.57-.34.14-.71.24-1.12.22-.41-.02-.86-.15-1.23-.37-.39-.23-.79-.58-1.01-.98-.21-.4-.28-.89-.23-1.33.06-.44.21-.89.51-1.24.33-.35.83-.68,1.35-.81.52-.14,1.1-.04,1.57.08.47.12.8.33,1.14.62.34.29.68.68.93,1.2.24.52.37,1.18.43,1.79.06.62.16,1.17.16,1.73,0,.56-.03,1.33-.15,2.27-.12.94-.45,2.07-.77,3.26-.33,1.2-.8,2.19-1.29,3.15-.47.96-1.1,1.82-1.74,2.63-.64.8-1.41,1.64-2.18,2.27-.77.63-1.39,1.1-2.17,1.46-.77.35-1.55.7-2.43.8-.88.11-1.87.12-2.84-.18-.98-.3-1.68-.82-2.48-1.63-.79-.81-1.3-2.06-1.65-3.19-.35-1.12-.55-2.92-.4-4.51.15-1.6.39-2.86.84-4.36.47-1.51,1.04-2.68,1.62-3.62.58-.95,1.08-1.79,1.69-2.49.61-.71,1.23-1.34,1.8-1.83.56-.47,1.07-1.03,1.65-1.41-.82.14-1.61.47-2.62.96-1.04.51-2.33,1.28-3.44,2.04-1.11.75-1.98,1.65-2.77,2.41-.81.76-1.48,1.59-2.08,2.42-.59.83-1.13,1.61-1.57,2.58-.42.98-.76,2.05-.96,3.06-.2,1.01-.24,1.96-.2,2.89.04.92.15,1.83.36,2.68.22.84.5,1.87.94,2.68.43.81,1.03,1.63,1.62,2.33.59.7,1.19,1.04,1.82,1.51.63.47,1.28.84,2.02,1.15.74.31,1.49.48,2.39.59s1.95.17,2.92.08c.97-.08,1.93-.23,2.84-.47.9-.24,1.74-.57,2.49-.94.74-.37,1.39-.79,2.08-1.36.69-.57,1.41-1.29,2.07-2.13.66-.84,1.25-1.81,1.83-2.95.59-1.15,1.17-2.47,1.68-3.93Z"/>
    <path class="st0" d="M146.24,28.8c.38-.19.79-.36,1.27-.42.5-.06.99.06,1.58.1l-1.33-2.9c-1.71-.14-3.44-.08-4.97.16-1.53.23-2.87.65-4.13,1.2-1.27.55-2.46,1.23-3.59,2.06-1.13.83-2.21,1.8-3.3,3.27-1.12,1.47-2.26,3.43-3.12,4.74-.86,1.3-1.43,1.95-1.85,2.34-.43.39-.71.53-.97.55-.27.02-.52-.08-.67-.25-.15-.17-.21-.41-.2-.64,0-.23.12-.43.24-.62l6.76-11.73h-5.34l-6.16,11.17c-.12.2-1.08,1.2-1.8,1.34-.21.04-.41.06-.57.05-.17-.01-.29-.03-.44-.09-.15-.06-.32-.17-.42-.33-.1-.16-.16-.39-.05-.57l6.54-11.6h-5.52l-3.97,6.99c-.64,1.06-1.73,1.79-2.37,2.35-.65.56-.94.77-1.35.99.74-1.47,1.15-2.95,1.21-4.21.05-1.26,0-2.09-.33-2.9-.33-.81-.97-1.86-1.71-2.41-.76-.54-1.43-.71-2.35-.83-.92-.13-1.78-.04-2.47.09-.71.14-1.47.49-1.98.69l6.24-11.37h-5.54l-12.52,22.06c-.17.29-.35.57-.63.8-.28.23-.62.43-.96.53-.34.1-.69.09-1-.02-.3-.12-.56-.33-.65-.64-.09-.31,0-.69.3-1.15l6.15-10.92h-5.12l-6.71,12.06c-.21.38-.54.72-.92.87-.37.15-.79.12-1.11.03-.32-.09-.55-.24-.65-.47-.11-.23-.09-.57.05-.82l3.64-6.37c.37-.65.67-1.3.71-1.42.21-.55-.26-1.84-.51-2.31-.25-.47-.72-.88-1.19-1.14-.47-.25-.87-.37-1.48-.33-.62.04-1.37.21-1.89.5-.54.29-1,.53-1.37.89l.88-1.58h-5.46l-6.47,11.67c-.2.36-.44.7-.69.94-.25.23-.51.38-.78.43-.28.05-.58.02-.79-.08-.22-.1-.33-.24-.41-.43-.07-.19-.1-.42-.06-.66.03-.23.15-.47.27-.69l3.52-6.32c.26-.47.37-1,.36-1.55,0-.55-.3-1.1-.53-1.55-.25-.46-.72-.88-1.12-1.14-.39-.27-.57-.39-1-.49-.42-.1-.83-.13-1.22-.1-.39.02-.77.09-1.11.18-.36.1-.7.22-1.14.51-.44.29-.8.67-1.3,1.15-.26-.45-.79-.8-1.15-1.09-.36-.29-.73-.45-1.1-.57-.36-.11-.73-.18-1.14-.16-.41,0-.86.09-1.31.23-.46.15-.91.36-1.35.67-.43.29-.63.54-.98.97-.17-.32-.55-.55-.85-.8-.31-.25-.74-.38-1.16-.55-.42-.17-1.1-.22-1.51-.3-.47-.08-.85-.02-1.41.11-.56.12-1.17.32-1.71.58-.55.26-1.02.58-1.44.92-.41.34-.76.73-1.07,1.2-.31.47-.44.8-.64,1.31l-.05.05s-.2,1.39-.2,1.44c.28-.16.31-.06.62-.12.3-.05.6-.04.84.02.24.07.44.2.59.35.16.15.28.32.23.67-.05.35-.31.86-.57,1.32l-5.32,9.44h5.32l5.78-10.14c.23-.38.46-.78.73-1.02.27-.25.55-.37.86-.4.29-.02.62.05.78.25.16.21.18.56.04.8l-5.92,10.53h5.46l5.84-10.49c.13-.23.25-.46.51-.69.27-.24.64-.5,1-.53.36-.03.71.17.83.48.12.31.02.74-.2,1.26-.22.52-.6,1.1-.93,1.7l-2.34,4.14c-.25.45-.4.96-.33,1.53.07.57.33,1.2.84,1.68.51.48,1.28.81,2,.89.71.08,1.35-.09,1.89-.29.53-.2.93-.43,1.27-.65.34-.22.9-.64,1.12-.9l-1.09,1.84h5.42l5.7-10.43c.09-.16.18-.32.33-.54.14-.21.33-.47.6-.62.27-.15.61-.19.9-.15.29.04.52.16.6.42.09.26,0,.66-.17.96l-2.95,5.21c-.22.39-.35.83-.41,1.37-.06.56-.06,1.23.14,1.79.2.57.58,1.03,1.09,1.39s1.17.59,1.94.62c.77.04,1.51-.23,2.41-.57.89-.34,1.78-1.57,2.56-2.19.15,1.24.62,1.93,1.12,2.31.5.38,1.09.43,1.88.45.78.03,1.91-.29,2.58-.62.67-.33,1.63-1.27,2.01-1.63l-1.23,2.25h5.85l2.01-4c.25,1.29,1.01,2.55,1.91,3.08.9.53,1.58.89,2.55.92.97.04,2.05-.05,2.97-.37s1.69-.76,2.6-1.26c1.1-.6,1.73-.97,2.72-1.52.99-.55,1.57-.96,2.67-1.63.2.68.6,1.58.63,1.64.22.54.59,1.19.98,1.6.4.41.81.82,1.27,1.08.45.26.67.38,1.2.44.48.06,1.57.03,1.96,0,.54-.04,1-.26,1.39-.51.41-.24.71-.45.99-.68.3-.23.55-.4.77-.68.04.16.08.43.16.56.14.24.21.41.65.69.34.22.73.33,1.42.51.66.17,2.36.14,2.67.08.76-.14,1.39-.45,2.1-.98.7-.53,1.34-1.23,1.96-2.1.63-.86,1.15-2.15,2.02-3.52.87-1.38,1.69-2.91,2.86-4.07,1.15-1.15,2.19-2.05,3.15-2.66.95-.62,1.93-1.15,2.65-1.41.73-.26,1.45-.52,1.83-.54-.39.32-.79.95-.99,1.33-.21.37-.31.87-.35,1.29-.04.41-.02.99.04,1.48.07.5.16.99.57,1.82.39.81.75,1.88.9,2.73.15.85,0,1.39-.24,1.76-.24.37-.61.58-1.09.68-.48.1-1.09.09-1.46-.16-.37-.25-.52-.74-.44-1.12.08-.38.4-.63.69-.79.29-.16.71-.26,1-.25.29,0,.88.06,1.13.19-.14-.43-.72-.94-.93-1.13-.4-.35-1.07-.85-1.76-1.13-.69-.29-1.58-.43-2.47-.34-.88.08-1.57.4-2.21.84-.65.45-.97.96-1.23,1.59-.26.63-.29,1.36-.24,2.02.06.65.27,1.35.66,1.92.39.57.57.76,1.27,1.23.69.47,1.19.79,1.87.96.78.19,2.08.41,3.05.4.97-.01,2.96-.09,3.78-.37,1.13-.39,1.17-.44,1.91-1,.73-.55,1.24-1.11,1.66-1.83.41-.71.76-1.46.8-2.22.03-.76,0-1.78-.29-2.6-.28-.82-.62-1.47-1.32-2.21-.76-.79-1.23-1.64-1.28-2.25-.06-.72.09-1.59.33-1.97.23-.38.57-.69.95-.89ZM106.48,34.08c-.1.39-.2.75-.49,1.39-.29.65-.76,1.58-1.26,2.32-.51.74-1.04,1.29-1.55,1.69-.51.4-1.01.64-1.5.78-.49.14-.96.17-1.41.12-.44-.04-.86-.15-1.23-.33-.36-.17-.68-.39-.93-.75-.25-.36-.44-.86-.51-1.35-.07-.48-.02-.95.19-1.51.2-.56.57-1.21.93-1.84.37-.64.74-1.25,1.02-1.7.27-.44.45-.71.75-1.04.31-.33.73-.73,1.19-1.01.45-.27.93-.44,1.5-.5.57-.06,1.23-.02,1.76.18.52.19.92.53,1.19.95.26.41.41.89.45,1.35.04.45-.04.86-.12,1.25Z"/>
    <path class="st0" d="M91.55,24.19c.5.36,1.12.56,1.73.56s1.23-.19,1.73-.56c.51-.36.89-.89,1.09-1.47.19-.57.19-1.2,0-1.78-.2-.57-.58-1.1-1.09-1.46-.5-.36-1.12-.55-1.73-.55s-1.23.19-1.73.55c-.5.36-.89.89-1.08,1.46-.19.57-.19,1.2,0,1.78.19.58.58,1.11,1.08,1.47Z"/>
    <path class="st0" d="M316.35,31.47c-.63.08-1.22.01-1.84-.05-.29-1.18-.88-2.31-1.62-3.14-.76-.83-1.68-1.37-2.7-1.7-1-.33-2.1-.44-3.3-.21-1.21.23-2.53.8-3.82,1.74-1.28.94-2.45,2.33-3.48,4.06-1.05,1.73-1.96,3.79-3.23,5.34-1.27,1.56-2.97,2.66-4.28,3.12-1.31.46-2.32.37-3.07.11-.73-.25-1.22-.93-1.47-1.37-.24-.45-.37-1.41-.34-2.07.03-.66.11-1.21.32-1.82.23-.61.49-1.22.86-1.87.39-.65.88-1.32,1.27-1.82.41-.51.76-.81,1.14-1.1.27-.2.73-.45,1.29-.44.4,0,.74.2.89.47.16.27.07.66-.15.9-.21.23-.43.33-.8.49-.34.14-1.29.13-1.39-.26.01.06.02,1.06.53,1.8.43.63,1.21,1.33,2.13,1.57.92.24,1.8.18,2.54-.23.78-.42,1.49-.93,1.82-1.5.34-.57.56-1.25.67-1.86.1-.61.06-1.23-.08-1.88-.14-.65-.55-1.47-.95-1.83-.57-.53-1.26-.99-2.26-1.29-1-.31-2.27-.47-3.48-.32-1.22.15-2.41.63-3.44,1.22-1.04.6-1.96,1.32-2.77,2.24-.81.93-1.53,2.06-2.09,2.98s-.94,1.61-1.58,2.6c-.63,1-1.51,2.28-2.16,3.09-.65.81-1.09,1.13-1.47,1.34-.39.21-.6.25-.88.27-.28.02-.41.05-.6-.05-.19-.1-.2-.09-.2-.45,0-.15.6-1.08.89-1.56l6.51-11.81h-5.66l-5.63,10.11c-.85,1.28-1.57,1.92-2.26,2.57-.69.65-1.24.9-1.93,1.06-.67.16-1.34.41-2.18,0-.65-.32-1.25-.97-1.39-1.61-.19-.82-.22-1.54.35-2.47.6-.98,1.26-2.37,1.67-3,.4-.63.71-1.04,1.14-1.41.43-.37.99-.7,1.41-.73.43-.03.72.24.83.54.09.29-.02.55-.21.86-.19.3-.33.68-.65.88.71.25,1.27.37,1.94.35.67-.02,1.33-.22,1.8-.54.49-.32.9-.79,1.18-1.35.29-.55.46-1.2.49-1.8.03-.6-.08-1.15-.33-1.64-.25-.5-.63-.95-1.23-1.28-.6-.34-1.39-.49-2.11-.51-.7-.02-1.34.07-1.9.33-.57.25-1.13.47-1.55.79-.42.31-.82.55-1.15.93-.33.4-.88,1.03-1.2,1.53-.31-.82-.4-1.56-.88-2.1-.48-.54-1-.73-1.51-.96-.52-.22-1.17-.29-1.69-.29-.4,0-1.15.12-1.7.24-.65.15-1.59.55-2.69,1.13-1.17.64-2.23,1.68-3.66,3.3-1.42,1.61-2.84,3.6-3.97,4.99-1.12,1.39-1.95,2.31-2.78,2.96-.84.64-1.69.89-2.59,1.08-.94.21-2.02.24-2.84.3-.75.05-1.89-.2-2.39-.49-.53-.31-.88-1.1-.94-1.58-.07-.48.26-1.26.49-1.57.57.44,1.84,1.44,2.64,1.57.8.14,2,.21,2.89.05.89-.16,2.02-.57,2.79-1.04.77-.47,1.48-1.23,2.04-1.97.57-.74.9-1.92,1.1-2.76.2-.84.1-1.33,0-2.07-.1-.74-.52-1.48-.95-2.07-.43-.59-1.11-1.09-1.81-1.49-.71-.4-1.44-.62-2.28-.76-.33-.05-1.47-.04-2.24.12-.94.2-2.23.83-3.14,1.43-.92.61-1.6,1.11-2.59,2.22-.8.89-1.91,2.4-2.69,3.85-.79,1.45-1.4,3.26-1.92,4.14-.53.88-.74,1.12-1.04,1.41-.32.28-.84.5-1.16.51-.31.01-.63-.17-.71-.48-.08-.31.09-.73.29-1.25.2-.52.44-1.13,1.89-4.94,1.45-3.82,3.7-10.28,6.37-17.31h-5.48l-6.29,9.65,1.45-9.66h-4.8l-12.87,20.38c-.4.63-.96,1.16-1.51,1.56-.56.4-1.13.67-1.82.7-.69.04-1.5-.14-2-.49-.5-.35-.71-.86-.63-1.3.08-.44.43-.82.9-1.06.47-.24,1.06-.34,1.47-.39.43-.05,1.15.26,1.4.31v-.05c-.34-.78-1.19-1.72-1.9-2.27-.7-.54-1.73-.93-2.65-1.08-.93-.15-1.92-.08-2.85.2-.94.27-1.81.74-2.49,1.39-.66.65-1.12,1.47-1.38,2.34-.25.87-.38,1.83-.2,2.74.19.91.59,1.8,1.17,2.56.59.76,1.37,1.43,2.29,1.86.92.43,2.07.75,3.33.76,1.25.01,2.62-.3,3.99-.82,1.36-.52,2.7-1.45,3.97-2.75,1.27-1.31,2.23-3.24,3.4-5.03l5-7.69-3.39,16.32,11.25-16.23c-1.34,3.43-2.37,6.84-3,9.01-.63,2.17-.53,2.94-.39,3.69s.56,1.58,1.09,2.12c.54.55,1,.96,1.72,1.2.73.24,1.48.26,2.29.11.8-.15,1.58-.63,2.37-1.16.8-.53,1.64-1.77,1.95-2.56-.16.43,1.04,1.63,1.41,2.03.41.45.95.75,1.56,1.01.61.27,1.33.45,2.02.59.68.13,1.33.22,2.11.15.79-.07,1.71-.29,2.68-.62.96-.33,1.93-.76,2.8-1.21.86-.46,1.6-.95,2.68-2.03,1.07-1.08,2.49-2.77,3.72-4.28,1.24-1.51,2.25-2.73,3.21-3.8.87-.98,1.53-1.84,2.28-2.09.9-.29,1.49-.24,2.04-.04.33.12.72.28,1.04.59.33.31.71.98.8,1.53.1.59,0,1.16-.2,1.77-.19.61-.55.98-.9,1.74-.35.76-.88,1.56-1.3,2.25-.41.69-.69,1.12-1.11,1.32-.37.17-.76.21-1.04.03-.27-.18-.43-.48-.39-.8.03-.33.19-.68.49-.96.28-.29.65-.48,1.08-.53-.82-.5-1.81-.9-2.69-.91-.88-.02-1.73.2-2.35.58-.63.39-1.04.95-1.34,1.57-.3.62-.43,1.36-.37,2.07.06.7.33,1.37.79,1.96.45.59,1.04,1.14,1.76,1.45.72.31,1.55.54,2.34.46.81-.08,1.66-.51,2.39-1,.73-.48,1.39-1.16,1.87-1.94.18.46.48.87,1.08,1.38.6.51,1.48,1.18,2.46,1.44.97.26,2.03.1,2.95-.12.94-.23,1.72-.49,2.4-.86.68-.36,1.33-.74,1.85-1.18.31.76.84,1.43,1.79,1.86.96.43,2.31.55,3.47.31,1.15-.23,2.27-.56,3.16-1.38.75-.69,1.78-1.61,2.05-3.55-.1.74,1.57,2.13,2.19,2.76.61.64,1.79,1.41,2.56,1.69.96.35,2.52.71,3.95.59,1.43-.12,2.79-.65,4.09-1.34,1.31-.7,2.28-1.64,3.24-2.83.25.64.75,1.21,1.4,1.89.64.68,1.51,1.39,2.78,1.82,1.29.44,2.86.62,4.35.35,1.49-.26,2.81-.89,3.74-1.54.93-.65,1.63-1.27,2.17-2.06.55-.79,1.28-1.8,1.7-2.76.41-.96.37-1.93.51-2.97.65-.17,1.27-.45,1.82-.82.55-.38,1.03-.86,1.4-1.35.55-.73,1-2.02,1.15-2.12-.54.35-1.62,1.02-2.24,1.08ZM240.26,33.14c.07-.5.35-1.02.72-1.48.37-.45.84-.86,1.29-1.13.45-.27.86-.41,1.31-.45.45-.04.92.02,1.33.16.4.14.76.38,1,.71.24.33.37.76.37,1.15,0,.39-.15.74-.42,1.13-.27.39-.67.81-1.09,1.15-.43.35-.88.62-1.4.75-.52.12-1.11.09-1.61-.03-.51-.12-.9-.32-1.16-.66-.26-.34-.41-.82-.33-1.31ZM310.17,37.55l-.05.05c-.4.72-.87,1.08-1.33,1.6-.45.52-.94.93-1.46,1.26-.52.33-1.1.47-1.72.67-.67.22-1.41.08-2.02-.27-.61-.34-.96-1.08-1.04-1.97-.08-.9.1-1.96.45-2.86.35-.9.68-1.63,1.1-2.27.41-.64.87-1.06,1.35-1.62.41.51.71,1.22,1.34,1.62.65.4,1.32.93,2.04,1.14.7.19,2.5.49,2.59,0-.2,1.01-.84,1.94-1.24,2.66Z"/>
    <path class="st0" d="M282.42,18.67c-.61,0-1.23.19-1.73.55-.5.36-.89.89-1.08,1.46-.2.58-.2,1.2,0,1.78.19.58.58,1.11,1.08,1.47.5.36,1.12.55,1.73.55s1.23-.19,1.73-.55c.51-.36.89-.89,1.09-1.47.19-.57.19-1.2,0-1.78-.2-.58-.59-1.1-1.09-1.46-.5-.36-1.11-.56-1.73-.55"/>
  </g>
  <g>
    <g>
      <path class="st1" d="M118.21,115.37v-57.83h14.38c14.37,0,21.91,6.2,21.91,18.21,0,1.99-.21,4.13-.63,6.44-1.68,9.23-7.26,14.72-16.96,14.72l-2.65-.08v18.54h-16.05ZM134.9,83.39c3,0,4.11-1.19,4.25-5.32,0-3.82-1.19-5.57-3.56-5.65l-1.33-.08v11.06h.63Z"/>
      <path class="st1" d="M156.94,115.37v-57.83h15.56v57.83h-15.56Z"/>
      <path class="st1" d="M176,101.21v-26.33h15.56v24.5c.28,1.27.84,1.59,1.96,1.59,1.11-.24,1.6-.88,1.6-1.59v-24.5h15.56v40.49h-15.08v-2.78c-1.67,2.23-4.6,3.58-9.2,3.58-6.63-.08-10.12-3.9-10.34-10.42l-.06-3.5v-1.03Z"/>
      <path class="st1" d="M238.31,76.31v14.8c-1.04-1.11-2.16-1.91-3.35-2.62-1.95-1.27-3.35-1.75-4.19-1.75-1.39,0-1.88.32-2.02,1.19,0,.72.07.95,1.19,1.67l.42.24,2.94,1.43c1.32.63,2.44,1.35,3.42,2.31,2.1,2.07,3.21,5.17,3.21,8.43,0,3.58-1.25,7.32-3.97,10.26-2.38,2.47-5.73,3.9-10.26,3.9-1.33,0-2.86-.08-4.46-.4-2.37-.48-4.75-1.27-7.05-2.39v-16.54c.28.47.63.95,1.04,1.43,1.47,1.83,3.22,3.26,4.68,3.9.98.4,1.76.56,2.38.56.42,0,.69-.08.98-.23.49-.32.7-.88.7-1.35,0-.32-.07-.64-.35-.88-.29-.24-.56-.47-.98-.64l-2.23-1.11-.41-.23c-4.48-1.91-6.91-5.33-6.91-9.94,0-1.75.35-3.42.91-5.33,1.74-5.72,6.42-9.3,13.75-9.3,1.04,0,2.16.08,3.28.23,2.51.32,5.02,1.12,7.32,2.39Z"/>
    </g>
    <path class="st1" d="M109.58,98.82c0,3.69-2.99,6.68-6.67,6.68s-6.68-2.99-6.68-6.68,2.99-6.67,6.68-6.67,6.67,2.99,6.67,6.67Z"/>
  </g>
</svg>