<?xml version="1.0" encoding="UTF-8"?>
<svg id="Capa_1" xmlns="http://www.w3.org/2000/svg" version="1.1" viewBox="0 0 35.79 35.79">
  <!-- Generator: Adobe Illustrator 29.8.6, SVG Export Plug-In . SVG Version: 2.1.1 Build 1)  -->
  <defs>
    <style>
      .st0 {
        fill: #fff;
      }
    </style>
  </defs>
  <path class="st0" d="M1.67,18.69h2.21c0,.5.19.76.55.76.18,0,.33-.07.45-.21.12-.14.17-.33.17-.56,0-.59-.31-.89-.92-.89-.04,0-.1,0-.16,0-.06,0-.14.01-.22.02v-1.79c.06,0,.12,0,.16,0,.05,0,.08,0,.11,0,.62,0,.93-.28.93-.85,0-.46-.16-.7-.48-.7-.25,0-.4.19-.43.56v.11H1.84c.06-.78.33-1.4.82-1.85.48-.46,1.11-.69,1.9-.69s1.37.24,1.86.71c.5.47.76,1.04.76,1.73,0,.77-.34,1.36-1.02,1.77.75.43,1.12,1.08,1.12,1.94,0,.75-.27,1.36-.8,1.83-.53.47-1.21.71-2.05.71s-1.49-.23-1.99-.69c-.51-.46-.77-1.06-.77-1.8v-.12Z"/>
  <path class="st0" d="M11.06,19.15l-1.47,4.03h-1.79l1.03-4.03h2.23Z"/>
  <path class="st0" d="M19.65,12.76l-1.34,2.39c-.05.09-.11.19-.18.3-.07.11-.15.23-.23.36.3-.16.57-.24.8-.24.58,0,1.06.26,1.46.78.4.52.6,1.15.6,1.9,0,.9-.27,1.63-.81,2.2-.54.56-1.24.84-2.11.84s-1.49-.28-1.99-.83c-.5-.56-.76-1.29-.76-2.2,0-.97.45-2.32,1.35-4.04l.77-1.47h2.43ZM18.58,18.32c0-.74-.22-1.11-.65-1.11s-.62.37-.62,1.12.21,1.16.62,1.16.65-.39.65-1.17Z"/>
  <path class="st0" d="M24.45,19.15l-1.47,4.03h-1.79l1.03-4.03h2.23Z"/>
  <path class="st0" d="M29.56,21.15l1.34-2.39c.05-.09.11-.19.18-.3.07-.11.15-.23.24-.36-.3.16-.57.24-.8.24-.58,0-1.06-.26-1.47-.78-.4-.53-.6-1.16-.6-1.91,0-.89.27-1.63.81-2.2.54-.56,1.24-.85,2.11-.85.82,0,1.48.28,1.99.84s.76,1.29.76,2.2c0,.97-.45,2.32-1.36,4.04l-.77,1.47h-2.43ZM30.63,15.59c0,.74.22,1.11.65,1.11s.62-.38.62-1.12-.21-1.17-.62-1.17-.65.39-.65,1.18Z"/>
</svg>