<?xml version="1.0" encoding="UTF-8"?>
<svg id="Capa_1" xmlns="http://www.w3.org/2000/svg" version="1.1" viewBox="0 0 35.79 35.79">
  <!-- Generator: Adobe Illustrator 29.8.6, SVG Export Plug-In . SVG Version: 2.1.1 Build 1)  -->
  <defs>
    <style>
      .st0 {
        fill: #fff;
      }
    </style>
  </defs>
  <path class="st0" d="M21.58,17.72h-1v-4.38c0-1.46-1.19-2.65-2.65-2.65s-2.65,1.19-2.65,2.65v4.38h-1v-4.38c0-2.01,1.64-3.65,3.65-3.65s3.65,1.64,3.65,3.65v4.38Z"/>
  <g>
    <polygon class="st0" points="17.94 31.9 17.93 31.9 17.92 31.9 17.94 31.9"/>
    <path class="st0" d="M30.59,9.17c-.14-.43-.54-.72-.99-.72h-.21c-4.02,0-7.84-1.52-10.75-4.28-.4-.38-1.03-.38-1.43,0-2.96,2.82-6.88,4.35-10.94,4.28-.49,0-.86.29-1,.72-.58,1.79-.88,3.66-.88,5.54,0,8.09,5.46,15.15,13.29,17.16.09.02.16.03.25.03.09,0,.16,0,.25-.03,7.82-2.01,13.29-9.07,13.29-17.16,0-1.9-.29-3.76-.88-5.54ZM17.94,29.78c-6.77-1.87-11.47-8.03-11.47-15.08-.01-1.41.18-2.81.56-4.17h.02c4.02-.12,7.84-1.59,10.9-4.2,3.06,2.6,6.88,4.07,10.9,4.2.37,1.35.56,2.76.56,4.18,0,7.05-4.7,13.21-11.47,15.07Z"/>
    <path class="st0" d="M21.59,15.02h-7.2c-.97,0-1.76.79-1.76,1.76v5.22c0,.97.79,1.76,1.76,1.76h7.2c.97,0,1.76-.79,1.76-1.76v-5.22c0-.97-.79-1.76-1.76-1.76ZM18.74,20.1v1.12h-1.61v-1.12c-.36-.25-.59-.67-.59-1.14,0-.77.63-1.4,1.4-1.4s1.4.63,1.4,1.4c0,.47-.24.89-.59,1.14Z"/>
  </g>
</svg>