<?xml version="1.0" encoding="UTF-8"?>
<svg id="Capa_1" xmlns="http://www.w3.org/2000/svg" version="1.1" viewBox="0 0 35.79 35.79">
  <!-- Generator: Adobe Illustrator 29.8.6, SVG Export Plug-In . SVG Version: 2.1.1 Build 1)  -->
  <defs>
    <style>
      .st0 {
        fill: #fff;
      }
    </style>
  </defs>
  <path class="st0" d="M29.39,9.3H6.4c-1.24,0-2.25,1.01-2.25,2.25v12.69c0,1.24,1.01,2.25,2.25,2.25h22.99c1.24,0,2.25-1.01,2.25-2.25v-12.69c0-1.24-1.01-2.25-2.25-2.25ZM6.4,9.97h22.99c.88,0,1.59.71,1.59,1.59v.86H4.81v-.86c0-.88.71-1.59,1.59-1.59ZM29.39,25.83H6.4c-.88,0-1.59-.71-1.59-1.59v-8.37h26.17v8.37c0,.88-.71,1.59-1.59,1.59Z"/>
  <rect class="st0" x="25.55" y="20.65" width="3.85" height="1.16" rx=".58" ry=".58"/>
  <rect class="st0" x="20.92" y="20.65" width="3.85" height="1.16" rx=".58" ry=".58"/>
  <rect class="st0" x="16.29" y="20.65" width="3.85" height="1.16" rx=".58" ry=".58"/>
  <path class="st0" d="M8.84,21.23c0-1,.5-1.87,1.26-2.4-.3-.12-.63-.19-.98-.19-1.44,0-2.6,1.16-2.6,2.6s1.16,2.6,2.6,2.6c.35,0,.68-.07.98-.19-.76-.53-1.26-1.41-1.26-2.4Z"/>
  <path class="st0" d="M11.77,18.96c-.37,0-.71.1-1.02.25-.74.38-1.25,1.13-1.25,2.01s.51,1.64,1.25,2.01c.31.16.65.25,1.02.25,1.25,0,2.27-1.02,2.27-2.27s-1.02-2.27-2.27-2.27Z"/>
</svg>