<?xml version="1.0" encoding="UTF-8"?>
<svg id="Capa_1" xmlns="http://www.w3.org/2000/svg" version="1.1" viewBox="0 0 346.89 132.4">
  <!-- Generator: Adobe Illustrator 29.8.6, SVG Export Plug-In . SVG Version: 2.1.1 Build 1)  -->
  <defs>
    <style>
      .st0 {
        fill: #e5252b;
      }

      .st1 {
        fill: #1e2345;
      }
    </style>
  </defs>
  <g>
    <path class="st1" d="M49.66,13.26v8.43h-14.24v39.18h-10.01V21.69h-14.31v-8.43h38.56Z"/>
    <path class="st1" d="M72.43,55.89c-.09.11-.3.43-.65.97-.34.54-.75,1.01-1.23,1.42-1.44,1.29-2.84,2.18-4.18,2.65-1.35.47-2.92.71-4.73.71-5.21,0-8.72-1.87-10.53-5.62-1.01-2.07-1.52-5.11-1.52-9.14v-21.22h9.43v21.22c0,2,.24,3.51.71,4.52.84,1.79,2.49,2.68,4.94,2.68,3.14,0,5.3-1.27,6.46-3.81.6-1.38.9-3.2.9-5.46v-19.15h9.33v35.2h-8.95v-4.97Z"/>
    <path class="st1" d="M121.61,60.87h-11.47l-6.07-10.56-6.1,10.56h-11.17l12.01-17.83-11.5-17.31h11.27l5.88,10.21,5.75-10.21h10.95l-11.56,17.15,12.01,17.99Z"/>
    <path class="st1" d="M156.53,29.44c2.84,3.04,4.26,7.49,4.26,13.37,0,6.2-1.39,10.93-4.18,14.18-2.79,3.25-6.38,4.88-10.77,4.88-2.8,0-5.12-.7-6.98-2.1-1.01-.77-2-1.91-2.97-3.39v18.34h-9.11V25.66h8.82v5.2c.99-1.53,2.05-2.73,3.17-3.62,2.05-1.57,4.48-2.36,7.3-2.36,4.11,0,7.6,1.52,10.46,4.55ZM151.29,43.27c0-2.71-.62-5.11-1.86-7.2-1.24-2.09-3.25-3.13-6.02-3.13-3.34,0-5.63,1.58-6.88,4.75-.65,1.68-.97,3.81-.97,6.39,0,4.09,1.09,6.97,3.26,8.62,1.29.97,2.82,1.45,4.59,1.45,2.56,0,4.52-.99,5.86-2.97,1.35-1.98,2.02-4.62,2.02-7.91Z"/>
    <path class="st1" d="M168.77,29.47c2.43-3.1,6.61-4.65,12.53-4.65,3.85,0,7.28.76,10.27,2.29,2.99,1.53,4.49,4.41,4.49,8.66v16.15c0,1.12.02,2.48.06,4.07.06,1.21.25,2.02.55,2.45.3.43.75.79,1.36,1.07v1.36h-10.01c-.28-.71-.47-1.38-.58-2-.11-.62-.19-1.33-.26-2.13-1.27,1.38-2.73,2.55-4.39,3.52-1.98,1.14-4.22,1.71-6.72,1.71-3.19,0-5.82-.91-7.9-2.73-2.08-1.82-3.12-4.4-3.12-7.74,0-4.33,1.67-7.46,5.01-9.4,1.83-1.05,4.52-1.81,8.07-2.26l3.13-.39c1.7-.22,2.92-.48,3.65-.81,1.31-.56,1.97-1.43,1.97-2.62,0-1.44-.5-2.44-1.5-2.99-1-.55-2.47-.82-4.41-.82-2.17,0-3.71.54-4.62,1.62-.65.8-1.08,1.87-1.29,3.23h-8.88c.19-3.08,1.05-5.61,2.58-7.59ZM175.61,54.21c.86.71,1.92,1.07,3.17,1.07,1.98,0,3.81-.58,5.47-1.74,1.67-1.16,2.54-3.28,2.6-6.36v-3.42c-.58.37-1.17.66-1.76.89-.59.23-1.41.44-2.44.63l-2.07.39c-1.94.34-3.33.76-4.17,1.26-1.42.84-2.13,2.14-2.13,3.91,0,1.57.44,2.7,1.32,3.39Z"/>
    <path class="st1" d="M220.8,32.48c-3.12,0-5.26,1.32-6.43,3.97-.6,1.4-.9,3.19-.9,5.36v19.06h-9.17V25.73h8.88v5.13c1.18-1.81,2.3-3.11,3.36-3.91,1.89-1.42,4.3-2.13,7.2-2.13,3.64,0,6.62.95,8.93,2.86,2.31,1.91,3.47,5.07,3.47,9.48v23.71h-9.43v-21.41c0-1.85-.25-3.27-.74-4.26-.9-1.81-2.63-2.71-5.17-2.71Z"/>
    <path class="st1" d="M253.51,64.16c-.39,1.59-1.11,2.97-2.16,4.13-1.14,1.25-2.48,2.19-4.02,2.83-1.54.63-2.6.95-3.18.95v-3.55c1.85-.52,3.21-1.38,4.09-2.58.87-1.21,1.37-2.9,1.5-5.07h-5.59v-9.62h9.95v8.33c0,1.46-.19,2.99-.58,4.59Z"/>
  </g>
  <g>
    <path class="st0" d="M30.18,83.96c1.1,0,1.95.17,2.54.52.59.34,1,.72,1.24,1.11.23.4.32.77.27,1.12-.06.34-.19.52-.41.52-.19,0-.34-.05-.43-.14-.1-.1-.24-.19-.43-.29-.19-.1-.46-.19-.81-.29-.34-.1-.86-.14-1.55-.14-.47,0-1.22.07-2.25.21s-2.2.32-3.49.54c-.58,1.62-1.2,3.39-1.88,5.29-.67,1.9-1.33,3.76-1.96,5.6-.63,1.83-1.23,3.53-1.78,5.1-.55,1.57-.99,2.84-1.32,3.8-.22.77-.14,1.16.25,1.16.27,0,.66-.2,1.16-.6.5-.4,1.04-.93,1.63-1.59.59-.66,1.22-1.41,1.9-2.25.67-.84,1.33-1.69,1.98-2.56.65-.87,1.27-1.72,1.86-2.56.59-.84,1.12-1.59,1.59-2.25.22-.33.4-.45.54-.37s.24.25.31.5c.07.25.1.52.08.81-.01.29-.05.49-.1.6-.28.44-.67,1.04-1.18,1.8-.51.76-1.1,1.59-1.78,2.5-.68.91-1.39,1.84-2.15,2.79-.76.95-1.53,1.82-2.31,2.6s-1.55,1.45-2.29,1.98c-.74.54-1.43.83-2.06.89-.06,0-.1,0-.14.02-.04.01-.09.02-.14.02-.22,0-.61-.04-1.16-.12s-1.11-.25-1.69-.5c-.58-.25-1.07-.59-1.49-1.03-.41-.44-.59-1.03-.54-1.78.06-.5.3-1.37.74-2.62.44-1.25.98-2.73,1.63-4.44.65-1.71,1.35-3.58,2.11-5.62.76-2.04,1.47-4.1,2.13-6.19-.69.08-1.32.15-1.9.21-.58.06-1.06.08-1.45.08-.8,0-1.45-.25-1.96-.74-.51-.5-.88-1.03-1.12-1.61-.23-.58-.34-1.12-.33-1.61.01-.5.16-.74.43-.74.11,0,.26.06.45.19.19.12.46.27.81.43.34.17.78.31,1.32.43.54.12,1.2.19,2,.19.52,0,1,0,1.45-.02.44-.01.87-.02,1.28-.02.38-1.4.71-2.75.97-4.05.26-1.29.45-2.52.56-3.68.03-.33.19-.52.5-.58.3-.05.67-.01,1.11.12.44.14.91.35,1.4.64s.96.61,1.38.95.77.7,1.03,1.05c.26.36.38.67.35.95-.03.19-.14.65-.35,1.36-.21.72-.5,1.6-.89,2.64.69-.08,1.36-.15,2.02-.21s1.43-.08,2.31-.08Z"/>
    <path class="st0" d="M51.2,96.27c.22-.33.4-.45.54-.37.14.08.23.25.29.5.05.25.08.52.08.81s-.04.49-.12.6c-.28.41-.67,1-1.18,1.78-.51.77-1.09,1.61-1.73,2.52-.65.91-1.36,1.84-2.13,2.81-.77.96-1.54,1.84-2.31,2.64-.77.8-1.54,1.48-2.29,2.04-.76.56-1.45.9-2.08,1.01-.25.08-.63.06-1.14-.08-.51-.14-1.03-.38-1.55-.72-.52-.34-.96-.78-1.32-1.3-.36-.52-.51-1.13-.45-1.82,0-.22.04-.49.12-.81.08-.32.19-.67.33-1.05-.55.69-1.13,1.36-1.73,2.02-.61.66-1.23,1.25-1.88,1.78-.65.52-1.3.94-1.96,1.26-.66.32-1.31.48-1.94.48-.33,0-.75-.1-1.26-.31-.51-.21-.99-.51-1.45-.91-.45-.4-.83-.89-1.14-1.47-.3-.58-.43-1.24-.37-1.98.06-.5.23-1.14.52-1.92s.65-1.66,1.07-2.62c.43-.96.87-1.96,1.34-2.99.47-1.03.92-2.03,1.34-2.99.43-.96.78-1.86,1.07-2.7.29-.84.46-1.53.52-2.09.06-.5.33-.73.83-.7.5.03,1.02.21,1.57.54.55.33,1.05.74,1.49,1.22.44.48.65.93.62,1.34-.03.28-.21.84-.56,1.69-.34.85-.76,1.84-1.24,2.97-.48,1.13-.99,2.31-1.53,3.53-.54,1.23-1.01,2.35-1.42,3.37-.41,1.02-.71,1.87-.89,2.54-.18.67-.16,1.01.06,1.01.58,0,1.3-.34,2.17-1.01.87-.67,1.78-1.53,2.73-2.58.95-1.05,1.89-2.22,2.81-3.53.92-1.31,1.74-2.58,2.46-3.82.63-1.49,1.19-2.86,1.67-4.11.48-1.25.75-2.24.81-2.95.03-.5.29-.73.78-.7.5.03,1.02.21,1.57.54.55.33,1.05.74,1.49,1.22.44.48.65.93.62,1.34-.03.25-.14.69-.35,1.32s-.47,1.4-.78,2.29c-.32.9-.67,1.87-1.07,2.91-.4,1.05-.79,2.09-1.18,3.12-.39,1.03-.76,2.02-1.12,2.95-.36.94-.65,1.73-.87,2.4-.14.61-.04.91.29.91.3,0,.69-.2,1.16-.6.47-.4.99-.94,1.57-1.61.58-.67,1.19-1.43,1.84-2.27.65-.84,1.29-1.7,1.92-2.58.63-.88,1.24-1.74,1.82-2.58s1.1-1.59,1.57-2.25Z"/>
    <path class="st0" d="M84.24,96.12c.22-.33.4-.46.54-.37.14.08.24.25.31.5.07.25.1.52.08.81-.01.29-.06.48-.14.56-.36.47-.89,1.16-1.61,2.07-.72.91-1.56,1.91-2.52,3-.96,1.09-2.02,2.21-3.16,3.35-1.14,1.14-2.31,2.19-3.51,3.12-1.2.94-2.39,1.7-3.57,2.3-1.18.59-2.3.89-3.34.89-.58,0-1.09-.1-1.55-.31-.45-.21-.85-.47-1.18-.78-.33-.32-.59-.65-.78-.99-.19-.34-.32-.65-.37-.93-.55,1.51-1.07,2.97-1.55,4.36-.48,1.39-.92,2.64-1.3,3.74-.39,1.1-.69,2.01-.93,2.73-.23.72-.36,1.16-.39,1.32,0,.19.01.34.04.45.03.11.05.19.06.25.01.05,0,.12-.02.19-.03.07-.1.16-.21.27-.17.14-.53.21-1.09.21s-1.15-.12-1.75-.37-1.14-.65-1.59-1.22c-.45-.56-.64-1.36-.56-2.37.03-.5.25-1.31.68-2.46.43-1.14.95-2.51,1.57-4.09.62-1.58,1.29-3.33,2.02-5.23.73-1.9,1.42-3.85,2.06-5.83.65-1.99,1.22-3.96,1.71-5.92.5-1.96.81-3.78.95-5.46.03-.33.2-.52.52-.58.32-.05.69-.01,1.12.12.43.14.89.35,1.4.64.51.29.97.61,1.38.95.41.34.76.7,1.03,1.06.27.36.4.68.37.95-.03.22-.16.7-.39,1.45s-.54,1.7-.93,2.85c.55-.85,1.14-1.74,1.78-2.65.63-.91,1.26-1.73,1.88-2.46.62-.73,1.21-1.33,1.78-1.8.56-.47,1.05-.7,1.47-.7.99,0,1.82.15,2.48.43.66.29,1.18.68,1.57,1.18.39.5.65,1.08.78,1.76.14.68.17,1.4.08,2.17-.06.58-.21,1.3-.47,2.17-.26.87-.61,1.81-1.03,2.81-.43,1.01-.92,2.05-1.49,3.12-.56,1.08-1.18,2.11-1.84,3.1.96-.83,1.93-1.72,2.89-2.67.96-.95,1.88-1.89,2.75-2.81.87-.92,1.64-1.81,2.33-2.67.69-.85,1.24-1.59,1.65-2.19ZM63.67,108.66c.88-.06,1.81-.5,2.79-1.32.98-.83,1.93-1.84,2.87-3.06.94-1.21,1.82-2.51,2.64-3.9.83-1.39,1.51-2.68,2.06-3.88.55-1.2.93-2.2,1.14-2.99.21-.8.17-1.2-.1-1.2-.44,0-.94.22-1.51.66-.56.44-1.16,1.02-1.8,1.73-.63.72-1.27,1.52-1.92,2.42-.65.9-1.27,1.8-1.86,2.73-.59.92-1.14,1.8-1.65,2.64-.51.84-.93,1.55-1.26,2.13-.22.66-.45,1.33-.7,2-.25.68-.48,1.36-.7,2.04Z"/>
    <path class="st0" d="M99.72,96.35c.22-.33.4-.45.54-.37.14.08.24.25.31.5.07.25.1.52.08.81-.01.29-.05.47-.1.56-.28.41-.65,1.03-1.12,1.86-.47.83-1.01,1.73-1.63,2.7-.62.98-1.29,1.98-2,3.01-.72,1.03-1.44,1.98-2.17,2.85-.73.87-1.46,1.59-2.19,2.17-.73.58-1.41.91-2.04.99-.03,0-.06,0-.1.02-.04.01-.09.02-.14.02-.22,0-.61-.04-1.16-.12s-1.11-.25-1.69-.5c-.58-.25-1.07-.59-1.49-1.03-.41-.44-.59-1.03-.54-1.78.05-.74.3-1.62.74-2.64s.91-2.04,1.4-3.06c.5-1.02.95-1.97,1.36-2.85.41-.88.63-1.53.66-1.94.05-.5-.07-.93-.37-1.3-.3-.37-.73-.75-1.28-1.14-.39.61-.76,1.16-1.14,1.65-.37.5-.67.9-.89,1.2-.08.14-.19.17-.33.08s-.26-.21-.37-.39c-.11-.18-.19-.36-.23-.56-.04-.19-.02-.36.06-.5.22-.27.45-.61.7-1.01.25-.4.54-.83.87-1.3-.47-.33-.94-.69-1.4-1.07-.47-.39-.87-.84-1.22-1.36-.34-.52-.6-1.12-.78-1.78-.18-.66-.23-1.43-.14-2.31.08-1.07.42-2.06,1.01-2.97.59-.91,1.27-1.7,2.04-2.37.77-.67,1.56-1.2,2.37-1.57.81-.37,1.49-.56,2.04-.56.6,0,1.11.31,1.51.93.4.62.53,1.67.39,3.16-.11,1.21-.42,2.47-.93,3.78-.51,1.31-1.09,2.58-1.75,3.82.52.41,1.09.79,1.71,1.14.62.34,1.18.71,1.69,1.09.51.39.92.83,1.24,1.32.32.5.45,1.12.39,1.86-.03.33-.19.92-.48,1.78-.29.85-.62,1.8-.99,2.85-.37,1.05-.76,2.11-1.16,3.18-.4,1.07-.74,2.01-1.01,2.81-.22.77-.15,1.16.21,1.16.3,0,.68-.23,1.14-.68s.96-1.05,1.51-1.78c.55-.73,1.14-1.56,1.75-2.48.62-.92,1.23-1.86,1.84-2.81.61-.95,1.19-1.86,1.76-2.75.56-.88,1.07-1.65,1.51-2.31ZM86.67,87.6c-.06.72,0,1.34.17,1.88.17.54.41,1.01.74,1.42.6-1.1,1.14-2.23,1.59-3.39.45-1.16.72-2.23.81-3.22.08-.88.05-1.47-.08-1.78-.14-.3-.36-.45-.66-.45-.25,0-.52.19-.81.58-.29.39-.56.86-.81,1.42-.25.56-.46,1.16-.64,1.8-.18.63-.28,1.21-.31,1.73Z"/>
    <path class="st0" d="M119.5,96.15c.19-.3.36-.41.5-.33.14.08.23.23.29.45.05.22.08.47.06.74-.01.28-.06.45-.14.54-.47.63-1.07,1.43-1.8,2.4-.73.96-1.58,1.91-2.56,2.83-.98.92-2.06,1.76-3.24,2.5-1.18.74-2.45,1.2-3.8,1.36-.96,1.18-2.01,2.16-3.14,2.93-1.13.77-2.29,1.16-3.47,1.16-.99,0-1.87-.22-2.62-.66s-1.4-.99-1.92-1.65c-.52-.66-.91-1.37-1.16-2.13-.25-.76-.34-1.45-.29-2.09.03-.47.16-1,.39-1.59.23-.59.52-1.2.87-1.84s.72-1.27,1.11-1.9c.4-.63.81-1.21,1.22-1.73.25-1.05.66-2.05,1.24-3.01.58-.96,1.26-1.81,2.04-2.54.78-.73,1.62-1.31,2.5-1.73.88-.43,1.73-.64,2.56-.64.91,0,1.71.23,2.4.7.69.47,1.26,1.06,1.71,1.78.45.72.78,1.5.99,2.35.21.85.27,1.65.19,2.4-.08,1.05-.39,2.26-.91,3.63-.52,1.38-1.2,2.75-2.02,4.13.8-.27,1.62-.7,2.46-1.28.84-.58,1.65-1.24,2.44-1.98s1.53-1.53,2.23-2.35c.7-.83,1.33-1.64,1.88-2.44ZM101.29,108.04c.55,0,1.09-.19,1.63-.56.54-.37,1.07-.86,1.59-1.47-.96-.41-1.8-.96-2.52-1.65-.3.5-.57.97-.81,1.42-.23.45-.4.85-.5,1.18-.1.33-.1.59-.02.78.08.19.29.29.62.29ZM107.98,90.9c-.47,0-.95.1-1.45.31s-.99.48-1.49.83c-.5.34-.97.76-1.42,1.24-.45.48-.86,1.01-1.22,1.59.3.03.68.12,1.14.27.45.15.9.34,1.34.58.44.23.81.51,1.09.83.29.32.42.65.39,1.01-.03.19-.14.46-.33.81-.19.34-.43.74-.72,1.2s-.62.94-.99,1.47c-.37.52-.74,1.05-1.09,1.57.83.63,1.73,1.11,2.73,1.45.44-.72.86-1.48,1.26-2.29.4-.81.74-1.6,1.03-2.37.29-.77.53-1.49.72-2.17.19-.67.32-1.26.37-1.75.14-1.65.12-2.82-.04-3.51-.17-.69-.61-1.03-1.32-1.03ZM105.59,86.28c.39,0,.91-.24,1.57-.71.66-.47,1.31-.99,1.96-1.54.65-.56,1.24-1.07,1.78-1.54.54-.47.87-.71,1.01-.71.22,0,.46.08.72.25.26.17.5.38.7.64.21.26.38.54.52.85.14.3.21.59.21.87,0,.3-.27.66-.81,1.07-.54.41-1.17.81-1.9,1.2-.73.39-1.49.72-2.27.99-.78.28-1.42.41-1.92.41-.47,0-.85-.09-1.16-.28-.3-.19-.52-.39-.64-.6-.12-.21-.17-.42-.14-.61.03-.19.15-.28.37-.28Z"/>
    <path class="st0" d="M144.65,96.31c.22-.33.4-.45.54-.37.14.08.24.25.31.5.07.25.1.52.08.81-.01.29-.05.49-.1.6-.28.44-.68,1.05-1.22,1.84-.54.78-1.14,1.65-1.82,2.58-.67.94-1.4,1.89-2.19,2.85-.78.96-1.58,1.84-2.37,2.61-.8.78-1.58,1.41-2.33,1.9-.76.49-1.45.73-2.09.73-.88,0-1.68-.2-2.4-.59-.72-.39-1.37-.92-1.96-1.57-.59-.65-1.13-1.42-1.61-2.3-.48-.88-.92-1.8-1.3-2.77-1.24,1.24-2.29,2.44-3.16,3.59-.87,1.15-1.34,2.18-1.42,3.07-.06.54-.23.77-.52.69s-.6-.33-.93-.73c-.33-.41-.63-.9-.89-1.49-.26-.58-.36-1.13-.31-1.62.03-.27.21-.65.54-1.14.33-.48.78-1.03,1.34-1.63.56-.6,1.21-1.26,1.94-1.96.73-.7,1.51-1.42,2.33-2.17-.3-1.02-.55-2-.74-2.93-.19-.94-.36-1.79-.5-2.56-.11-.39-.22-.62-.33-.7-.11-.08-.23-.1-.37-.04-.14.06-.28.18-.41.37-.41.63-.78,1.2-1.11,1.69-.3.44-.59.87-.87,1.28-.28.41-.47.7-.58.87-.08.17-.2.22-.35.17s-.28-.18-.39-.37c-.11-.19-.18-.41-.21-.66-.03-.25.04-.5.21-.74.36-.55.78-1.19,1.26-1.92.48-.73.97-1.42,1.47-2.06.5-.65.98-1.19,1.47-1.63.48-.44.92-.66,1.3-.66.61,0,1.14.16,1.61.47.47.32.88.74,1.24,1.28.36.54.67,1.17.95,1.9.27.73.52,1.51.74,2.33.74-.66,1.45-1.29,2.11-1.9.66-.6,1.24-1.16,1.73-1.65s.89-.92,1.18-1.28c.29-.36.45-.63.48-.83.03-.44.19-.68.5-.72.3-.04.63.05.97.27.34.22.65.54.91.95.26.41.38.87.35,1.36-.03.28-.25.66-.68,1.16-.43.5-.98,1.06-1.67,1.69-.69.63-1.47,1.34-2.35,2.11-.88.77-1.79,1.57-2.73,2.4.22,1.1.45,2.18.7,3.22.25,1.05.53,1.98.85,2.79.32.81.69,1.47,1.12,1.96.43.5.96.74,1.59.74.3,0,.69-.2,1.18-.6.48-.4,1.02-.93,1.61-1.59.59-.66,1.22-1.4,1.9-2.23.67-.83,1.33-1.68,1.98-2.56.65-.88,1.27-1.73,1.86-2.56.59-.83,1.12-1.57,1.59-2.23Z"/>
    <path class="st0" d="M154.6,96.31c.22-.33.39-.45.52-.37s.21.25.25.5c.04.25.05.52.02.81-.03.29-.07.48-.12.56-.28.44-.66,1.04-1.16,1.8-.5.76-1.07,1.59-1.73,2.5s-1.37,1.84-2.13,2.79c-.76.95-1.53,1.82-2.31,2.62-.78.8-1.55,1.46-2.29,1.98-.74.52-1.43.83-2.06.91h-.25c-.22,0-.61-.04-1.16-.12s-1.11-.24-1.69-.48c-.58-.23-1.07-.57-1.49-1.01-.41-.44-.59-1.03-.54-1.78.03-.5.2-1.2.52-2.11.32-.91.7-1.92,1.16-3.04.45-1.12.94-2.26,1.45-3.45.51-1.18.98-2.3,1.42-3.34.44-1.05.81-1.95,1.11-2.73.3-.77.47-1.29.5-1.57.03-.5.29-.73.78-.7.5.03,1.02.21,1.57.54.55.33,1.05.74,1.51,1.22.45.48.67.93.64,1.34-.03.25-.14.67-.33,1.26-.19.59-.43,1.29-.72,2.11-.29.81-.61,1.69-.97,2.64-.36.95-.72,1.89-1.07,2.83-.36.94-.7,1.84-1.01,2.7s-.58,1.62-.81,2.25c-.22.74-.15,1.12.21,1.12.3,0,.7-.2,1.2-.6.5-.4,1.05-.93,1.65-1.59.61-.66,1.25-1.4,1.92-2.23.67-.83,1.33-1.68,1.98-2.56.65-.88,1.27-1.73,1.88-2.56.61-.83,1.13-1.57,1.57-2.23ZM149.03,87.6c-.44,0-.88-.07-1.32-.21-.44-.14-.83-.33-1.18-.58s-.62-.54-.83-.87-.3-.67-.27-1.03c.06-.55.25-1.12.6-1.71.34-.59.78-1.13,1.3-1.61.52-.48,1.08-.88,1.67-1.2.59-.32,1.16-.47,1.71-.47.83,0,1.49.24,1.98.72.5.48.72,1.16.66,2.04-.06.44-.2.94-.43,1.51-.23.56-.54,1.1-.93,1.61-.39.51-.83.94-1.34,1.28s-1.05.52-1.63.52Z"/>
    <path class="st0" d="M185.57,96.27c.22-.33.4-.45.54-.37.14.08.24.25.31.5.07.25.1.52.08.81-.01.29-.05.49-.1.6-.28.41-.66,1.01-1.16,1.8-.5.78-1.07,1.64-1.71,2.56-.65.92-1.35,1.88-2.11,2.87-.76.99-1.52,1.9-2.29,2.73-.77.83-1.54,1.53-2.29,2.11-.76.58-1.45.92-2.08,1.03-.22.08-.59.06-1.12-.08-.52-.14-1.04-.37-1.55-.7-.51-.33-.95-.76-1.32-1.28-.37-.52-.53-1.13-.48-1.82.03-.47.18-1.1.45-1.9.27-.8.61-1.68,1.01-2.64.4-.96.83-1.99,1.3-3.08.47-1.09.92-2.15,1.36-3.2-.96,1.18-1.9,2.34-2.81,3.47-.91,1.13-1.75,2.18-2.54,3.16-.78.98-1.47,1.86-2.06,2.64-.59.78-1.03,1.4-1.3,1.84,0,.14,0,.27-.02.39-.01.12-.08.24-.19.35-.17.14-.5.15-.99.04-.5-.11-1-.33-1.51-.66-.51-.33-.95-.76-1.32-1.3-.37-.54-.52-1.18-.43-1.92.03-.44.14-.97.33-1.59.19-.62.43-1.29.72-2.02.29-.73.6-1.49.93-2.29.33-.8.66-1.6.99-2.4-.63.91-1.38,1.99-2.23,3.24-.85,1.25-1.71,2.53-2.58,3.82-.87,1.29-1.67,2.53-2.42,3.7-.74,1.17-1.32,2.13-1.73,2.87.03.22.04.39.04.52s-.07.25-.21.39c-.17.17-.51.19-1.03.08-.52-.11-1.06-.33-1.61-.66-.55-.33-1.03-.76-1.45-1.3-.41-.54-.59-1.18-.54-1.92.03-.5.19-1.16.5-2,.3-.84.67-1.77,1.11-2.79.44-1.02.91-2.09,1.4-3.2.5-1.11.96-2.19,1.4-3.22.44-1.03.81-1.99,1.12-2.87.3-.88.48-1.6.54-2.15.03-.5.29-.73.78-.7.5.03,1.02.21,1.57.54.55.33,1.05.74,1.51,1.24.45.5.67.95.64,1.36-.03.25-.15.7-.37,1.34-.22.65-.5,1.42-.83,2.31-.33.89-.7,1.86-1.09,2.89-.4,1.03-.79,2.06-1.18,3.08.3-.47.67-1.04,1.12-1.71.44-.67.92-1.4,1.45-2.17.52-.77,1.06-1.56,1.61-2.37.55-.81,1.09-1.58,1.61-2.31.52-.73,1.01-1.4,1.47-2,.45-.6.83-1.1,1.14-1.49v-.04c.03-.5.29-.73.78-.7.5.03,1.02.21,1.57.54.55.33,1.05.74,1.51,1.22.45.48.67.93.64,1.34-.03.3-.16.81-.39,1.53-.23.72-.52,1.54-.87,2.46-.34.92-.72,1.9-1.12,2.93-.4,1.03-.78,2-1.14,2.91.33-.5.76-1.12,1.28-1.88.52-.76,1.09-1.56,1.69-2.42.6-.85,1.22-1.72,1.86-2.6.63-.88,1.25-1.71,1.86-2.5.61-.78,1.16-1.47,1.67-2.06.51-.59.93-1.04,1.26-1.34.08-.17.22-.26.41-.29.03-.03.08-.04.17-.04h.08c.33,0,.72.11,1.16.33.44.22.85.48,1.24.78.39.3.71.63.97.99.26.36.38.7.35,1.03-.03.25-.14.69-.35,1.32-.21.63-.47,1.4-.78,2.29-.32.9-.67,1.86-1.07,2.89-.4,1.03-.79,2.06-1.18,3.1-.39,1.03-.76,2.02-1.11,2.95-.36.94-.65,1.73-.87,2.4-.17.61-.08.91.25.91.3,0,.69-.21,1.16-.64.47-.43.99-.98,1.57-1.65.58-.67,1.18-1.45,1.82-2.33.63-.88,1.26-1.77,1.88-2.66.62-.89,1.22-1.77,1.8-2.62.58-.85,1.09-1.61,1.53-2.27Z"/>
    <path class="st0" d="M205.06,96.15c.19-.3.36-.41.5-.33.14.08.23.23.29.45.05.22.08.47.06.74-.01.28-.06.45-.14.54-.47.63-1.07,1.43-1.8,2.4-.73.96-1.58,1.91-2.56,2.83-.98.92-2.06,1.76-3.24,2.5-1.18.74-2.45,1.2-3.8,1.36-.96,1.18-2.01,2.16-3.14,2.93-1.13.77-2.29,1.16-3.47,1.16-.99,0-1.87-.22-2.62-.66s-1.4-.99-1.92-1.65c-.52-.66-.91-1.37-1.16-2.13-.25-.76-.34-1.45-.29-2.09.03-.47.16-1,.39-1.59.23-.59.52-1.2.87-1.84s.72-1.27,1.11-1.9c.4-.63.81-1.21,1.22-1.73.25-1.05.66-2.05,1.24-3.01.58-.96,1.26-1.81,2.04-2.54.78-.73,1.62-1.31,2.5-1.73.88-.43,1.73-.64,2.56-.64.91,0,1.71.23,2.4.7.69.47,1.26,1.06,1.71,1.78.45.72.78,1.5.99,2.35.21.85.27,1.65.19,2.4-.08,1.05-.39,2.26-.91,3.63-.52,1.38-1.2,2.75-2.02,4.13.8-.27,1.62-.7,2.46-1.28.84-.58,1.65-1.24,2.44-1.98s1.53-1.53,2.23-2.35c.7-.83,1.33-1.64,1.88-2.44ZM186.85,108.04c.55,0,1.09-.19,1.63-.56.54-.37,1.07-.86,1.59-1.47-.96-.41-1.8-.96-2.52-1.65-.3.5-.57.97-.81,1.42-.23.45-.4.85-.5,1.18-.1.33-.1.59-.02.78.08.19.29.29.62.29ZM193.54,90.9c-.47,0-.95.1-1.45.31s-.99.48-1.49.83c-.5.34-.97.76-1.42,1.24-.45.48-.86,1.01-1.22,1.59.3.03.68.12,1.14.27.45.15.9.34,1.34.58.44.23.81.51,1.09.83.29.32.42.65.39,1.01-.03.19-.14.46-.33.81-.19.34-.43.74-.72,1.2s-.62.94-.99,1.47c-.37.52-.74,1.05-1.09,1.57.83.63,1.73,1.11,2.73,1.45.44-.72.86-1.48,1.26-2.29.4-.81.74-1.6,1.03-2.37.29-.77.53-1.49.72-2.17.19-.67.32-1.26.37-1.75.14-1.65.12-2.82-.04-3.51-.17-.69-.61-1.03-1.32-1.03Z"/>
    <path class="st0" d="M238.84,96.31c.22-.33.4-.45.54-.37s.23.25.29.5c.06.25.08.52.08.81s-.03.48-.08.56c-.28.44-.67,1.04-1.18,1.8-.51.76-1.1,1.59-1.78,2.5-.68.91-1.39,1.84-2.15,2.79-.76.95-1.53,1.82-2.31,2.62-.78.8-1.55,1.46-2.29,1.98-.74.52-1.43.83-2.06.91h-.29c-.22,0-.61-.04-1.16-.12-.55-.08-1.12-.24-1.69-.48-.58-.23-1.07-.57-1.49-1.01-.41-.44-.59-1.03-.54-1.78.05-.36.18-.84.37-1.45-.5.63-.99,1.24-1.49,1.82s-.97,1.09-1.42,1.53c-.45.44-.87.79-1.24,1.05s-.68.39-.93.39c-.55,0-1.18-.12-1.9-.37-.72-.25-1.38-.6-2-1.05-.62-.45-1.13-1-1.53-1.63-.4-.63-.56-1.33-.48-2.11.03-.52.21-1.27.56-2.23.34-.96.78-2.02,1.3-3.18s1.11-2.33,1.78-3.51,1.34-2.26,2.04-3.24c.7-.98,1.38-1.78,2.04-2.4.66-.62,1.27-.93,1.82-.93.66,0,1.29.1,1.9.31.6.21,1.16.46,1.67.76.51.3.97.65,1.38,1.05.41.4.78.78,1.11,1.14.96-2.7,1.84-5.43,2.62-8.2s1.29-5.31,1.51-7.62c.03-.33.19-.52.5-.58.3-.06.67,0,1.12.14.44.15.91.37,1.4.66s.96.61,1.38.95c.43.34.77.7,1.03,1.05.26.36.38.68.35.95-.03.25-.23.94-.6,2.06-.37,1.13-.84,2.51-1.4,4.15-.56,1.64-1.19,3.43-1.88,5.39-.69,1.96-1.37,3.88-2.04,5.76-.68,1.89-1.3,3.65-1.88,5.31-.58,1.65-1.03,2.97-1.36,3.96-.22.74-.14,1.12.25,1.12.27,0,.66-.2,1.16-.6.5-.4,1.04-.93,1.63-1.59.59-.66,1.22-1.4,1.9-2.23.67-.83,1.33-1.68,1.98-2.56.65-.88,1.27-1.73,1.86-2.56.59-.83,1.12-1.57,1.59-2.23ZM218.11,107.83c.22,0,.52-.17.91-.52.39-.34.81-.8,1.28-1.36.47-.56.96-1.2,1.47-1.92.51-.72,1.02-1.45,1.53-2.21.51-.76,1-1.5,1.47-2.23.47-.73.88-1.38,1.24-1.96.22-.52.42-1.06.6-1.61.18-.55.38-1.1.6-1.65-.3-.14-.65-.25-1.03-.35-.39-.1-.81-.14-1.28-.14-.39,0-.86.34-1.42,1.03-.56.69-1.15,1.55-1.75,2.58-.61,1.03-1.19,2.15-1.75,3.37-.56,1.21-1.03,2.33-1.4,3.37-.37,1.03-.61,1.89-.72,2.58-.11.69-.01,1.03.29,1.03Z"/>
    <path class="st0" d="M256.97,96.1c.19-.25.36-.34.5-.27.14.07.24.2.31.39.07.19.11.4.12.62.01.22,0,.37-.06.45-.3.41-.76,1.03-1.38,1.84-.62.81-1.35,1.71-2.19,2.68-.84.98-1.76,1.97-2.77,2.97s-2.04,1.93-3.1,2.77c-1.06.84-2.12,1.52-3.18,2.04-1.06.52-2.06.78-2.99.78-.69,0-1.41-.19-2.17-.56-.76-.37-1.45-.84-2.09-1.4-.63-.56-1.15-1.16-1.55-1.8-.4-.63-.57-1.2-.52-1.69.11-1.24.37-2.48.76-3.72.4-1.24.9-2.42,1.49-3.53.59-1.11,1.25-2.16,1.96-3.14.72-.98,1.45-1.82,2.21-2.52.76-.7,1.51-1.26,2.25-1.67.74-.41,1.42-.62,2.02-.62.77,0,1.51.21,2.23.62.72.41,1.33.93,1.84,1.55.51.62.91,1.29,1.2,2,.29.72.42,1.36.39,1.94-.06.58-.32,1.29-.81,2.13-.48.84-1.09,1.64-1.84,2.4-.74.76-1.57,1.41-2.48,1.96-.91.55-1.83.83-2.77.83-.55,0-1.04-.03-1.47-.1-.43-.07-.82-.17-1.18-.31-.28.74-.5,1.44-.66,2.09-.17.65-.25,1.21-.27,1.69-.01.48.07.87.25,1.16.18.29.46.43.85.43.85,0,1.75-.21,2.68-.64.94-.43,1.88-.98,2.83-1.67.95-.69,1.89-1.47,2.81-2.35.92-.88,1.8-1.77,2.62-2.66.83-.89,1.59-1.75,2.29-2.56s1.31-1.52,1.84-2.13ZM248.3,92.8c-.3,0-.65.18-1.05.54-.4.36-.83.84-1.28,1.45-.45.61-.92,1.31-1.38,2.11-.47.8-.92,1.62-1.36,2.48,1.07-.25,2.02-.73,2.83-1.45.81-.72,1.46-1.45,1.94-2.21.48-.76.76-1.43.83-2.02.07-.59-.1-.89-.52-.89Z"/>
    <path class="st0" d="M271.5,96.27c.22-.33.41-.48.56-.43.15.04.27.17.35.37s.12.44.12.7-.03.43-.08.52c-.52.85-1.35,1.65-2.48,2.4-1.13.74-2.35,1.47-3.68,2.19.17.58.22,1.23.17,1.94-.08.83-.37,1.69-.87,2.58-.5.9-1.12,1.71-1.88,2.46-.76.74-1.61,1.36-2.56,1.84-.95.48-1.92.72-2.91.72-.33,0-.65-.1-.97-.31-.32-.21-.6-.47-.85-.78-.25-.32-.45-.67-.6-1.05-.15-.39-.21-.76-.19-1.12.03-.5.19-.97.5-1.42.3-.45.7-.89,1.18-1.3.48-.41,1.04-.81,1.67-1.2.63-.39,1.31-.77,2.02-1.16-.08-1.18-.35-2.27-.81-3.26-.45-.99-1-1.95-1.63-2.89-.14.17-.26.32-.37.48-.11.15-.21.3-.29.43-.08.14-.2.17-.35.08-.15-.08-.28-.21-.39-.39-.11-.18-.19-.36-.23-.56-.04-.19-.02-.36.06-.5.08-.14.18-.27.29-.41.11-.14.22-.29.33-.45-.77-1.16-1.44-2.37-2-3.63-.56-1.27-.78-2.71-.64-4.34.08-1.07.42-2.06,1.01-2.97.59-.91,1.27-1.7,2.04-2.37.77-.67,1.56-1.2,2.37-1.57.81-.37,1.49-.56,2.04-.56.61,0,1.11.31,1.51.93.4.62.53,1.67.39,3.16-.11,1.32-.47,2.71-1.07,4.17-.61,1.46-1.28,2.85-2.02,4.17.74,1.29,1.58,2.6,2.5,3.92.92,1.32,1.63,2.66,2.13,4.01,1.16-.63,2.24-1.3,3.24-2,1-.7,1.8-1.49,2.37-2.37ZM258.25,109.11c.39,0,.73-.14,1.03-.43.3-.29.57-.65.81-1.07.23-.43.42-.89.56-1.38.14-.5.23-.94.29-1.32-.88.55-1.61,1.11-2.19,1.67-.58.56-.9,1.16-.95,1.8-.03.19,0,.37.1.52.1.15.21.23.35.23ZM259.73,87.6c-.06.61-.01,1.2.12,1.8.14.59.34,1.19.62,1.8.63-1.16,1.2-2.33,1.69-3.53.5-1.2.78-2.32.87-3.37.08-.88.06-1.47-.08-1.78-.14-.3-.36-.45-.66-.45-.25,0-.51.19-.78.58-.28.39-.54.86-.78,1.42-.25.56-.46,1.16-.64,1.8-.18.63-.3,1.21-.35,1.73Z"/>
    <path class="st0" d="M285.79,83.96c1.1,0,1.95.17,2.54.52.59.34,1,.72,1.24,1.11.23.4.32.77.27,1.12-.06.34-.19.52-.41.52-.19,0-.34-.05-.43-.14-.1-.1-.24-.19-.43-.29-.19-.1-.46-.19-.81-.29-.34-.1-.86-.14-1.55-.14-.47,0-1.22.07-2.25.21s-2.2.32-3.49.54c-.58,1.62-1.2,3.39-1.88,5.29-.67,1.9-1.33,3.76-1.96,5.6-.63,1.83-1.23,3.53-1.78,5.1-.55,1.57-.99,2.84-1.32,3.8-.22.77-.14,1.16.25,1.16.27,0,.66-.2,1.16-.6.5-.4,1.04-.93,1.63-1.59.59-.66,1.22-1.41,1.9-2.25.67-.84,1.33-1.69,1.98-2.56.65-.87,1.27-1.72,1.86-2.56.59-.84,1.12-1.59,1.59-2.25.22-.33.4-.45.54-.37s.24.25.31.5c.07.25.1.52.08.81-.01.29-.05.49-.1.6-.28.44-.67,1.04-1.18,1.8-.51.76-1.1,1.59-1.78,2.5-.68.91-1.39,1.84-2.15,2.79-.76.95-1.53,1.82-2.31,2.6s-1.55,1.45-2.29,1.98c-.74.54-1.43.83-2.06.89-.06,0-.1,0-.14.02-.04.01-.09.02-.14.02-.22,0-.61-.04-1.16-.12s-1.11-.25-1.69-.5c-.58-.25-1.07-.59-1.49-1.03-.41-.44-.59-1.03-.54-1.78.06-.5.3-1.37.74-2.62.44-1.25.98-2.73,1.63-4.44.65-1.71,1.35-3.58,2.11-5.62.76-2.04,1.47-4.1,2.13-6.19-.69.08-1.32.15-1.9.21-.58.06-1.06.08-1.45.08-.8,0-1.45-.25-1.96-.74-.51-.5-.88-1.03-1.12-1.61-.23-.58-.34-1.12-.33-1.61.01-.5.16-.74.43-.74.11,0,.26.06.45.19.19.12.46.27.81.43.34.17.78.31,1.32.43.54.12,1.2.19,2,.19.52,0,1,0,1.45-.02.44-.01.87-.02,1.28-.02.38-1.4.71-2.75.97-4.05.26-1.29.45-2.52.56-3.68.03-.33.19-.52.5-.58.3-.05.67-.01,1.11.12.44.14.91.35,1.4.64s.96.61,1.38.95.77.7,1.03,1.05c.26.36.38.67.35.95-.03.19-.14.65-.35,1.36-.21.72-.5,1.6-.89,2.64.69-.08,1.36-.15,2.02-.21s1.43-.08,2.31-.08Z"/>
    <path class="st0" d="M296.03,96.31c.22-.33.39-.45.52-.37s.21.25.25.5c.04.25.05.52.02.81-.03.29-.07.48-.12.56-.28.44-.66,1.04-1.16,1.8-.5.76-1.07,1.59-1.73,2.5s-1.37,1.84-2.13,2.79c-.76.95-1.53,1.82-2.31,2.62-.78.8-1.55,1.46-2.29,1.98-.74.52-1.43.83-2.06.91h-.25c-.22,0-.61-.04-1.16-.12s-1.11-.24-1.69-.48c-.58-.23-1.07-.57-1.49-1.01-.41-.44-.59-1.03-.54-1.78.03-.5.2-1.2.52-2.11.32-.91.7-1.92,1.16-3.04.45-1.12.94-2.26,1.45-3.45.51-1.18.98-2.3,1.42-3.34.44-1.05.81-1.95,1.11-2.73.3-.77.47-1.29.5-1.57.03-.5.29-.73.78-.7.5.03,1.02.21,1.57.54.55.33,1.05.74,1.51,1.22.45.48.67.93.64,1.34-.03.25-.14.67-.33,1.26-.19.59-.43,1.29-.72,2.11-.29.81-.61,1.69-.97,2.64-.36.95-.72,1.89-1.07,2.83-.36.94-.7,1.84-1.01,2.7s-.58,1.62-.81,2.25c-.22.74-.15,1.12.21,1.12.3,0,.7-.2,1.2-.6.5-.4,1.05-.93,1.65-1.59.61-.66,1.25-1.4,1.92-2.23.67-.83,1.33-1.68,1.98-2.56.65-.88,1.27-1.73,1.88-2.56.61-.83,1.13-1.57,1.57-2.23ZM290.46,87.6c-.44,0-.88-.07-1.32-.21-.44-.14-.83-.33-1.18-.58s-.62-.54-.83-.87-.3-.67-.27-1.03c.06-.55.25-1.12.6-1.71.34-.59.78-1.13,1.3-1.61.52-.48,1.08-.88,1.67-1.2.59-.32,1.16-.47,1.71-.47.83,0,1.49.24,1.98.72.5.48.72,1.16.66,2.04-.06.44-.2.94-.43,1.51-.23.56-.54,1.1-.93,1.61-.39.51-.83.94-1.34,1.28s-1.05.52-1.63.52Z"/>
    <path class="st0" d="M319.4,96.39c.22-.33.4-.45.54-.37.14.08.24.25.31.5s.1.52.08.81-.05.48-.1.56c-.28.41-.67,1.01-1.18,1.78-.51.77-1.1,1.62-1.78,2.54-.68.92-1.4,1.87-2.17,2.85-.77.98-1.55,1.87-2.33,2.68-.78.81-1.56,1.5-2.33,2.06-.77.56-1.47.9-2.11,1.01-.22.08-.59.06-1.12-.08-.52-.14-1.04-.37-1.55-.7-.51-.33-.95-.76-1.32-1.28s-.53-1.13-.48-1.82c.03-.52.22-1.27.58-2.23.36-.96.78-2.02,1.26-3.18.48-1.16,1-2.36,1.55-3.61.55-1.25,1.04-2.44,1.49-3.57-.52.55-1.15,1.24-1.88,2.06-.73.83-1.5,1.71-2.31,2.64-.81.94-1.63,1.89-2.46,2.87-.83.98-1.6,1.91-2.31,2.79-.72.88-1.33,1.68-1.84,2.4-.51.72-.86,1.28-1.05,1.69-.03.36-.01.65.04.87.06.22-.01.41-.21.58-.17.14-.51.15-1.03.04-.52-.11-1.06-.33-1.61-.66-.55-.33-1.03-.76-1.45-1.3-.41-.54-.59-1.18-.54-1.92.03-.5.19-1.16.5-1.98.3-.83.67-1.73,1.11-2.73.44-.99.91-2.04,1.4-3.14.5-1.1.96-2.16,1.38-3.18.43-1.02.79-1.96,1.09-2.83.3-.87.48-1.58.54-2.13.03-.5.29-.73.78-.7.5.03,1.02.21,1.59.54.56.33,1.07.74,1.51,1.22.44.48.65.93.62,1.34-.03.25-.14.7-.35,1.34-.21.65-.47,1.4-.81,2.27-.33.87-.7,1.81-1.09,2.83-.4,1.02-.79,2.02-1.18,3.01.39-.52.87-1.16,1.47-1.92.59-.76,1.22-1.57,1.9-2.44.67-.87,1.38-1.75,2.13-2.64.74-.89,1.46-1.73,2.15-2.5.69-.77,1.33-1.44,1.92-2,.59-.56,1.09-.96,1.51-1.18.05-.05.17-.11.33-.17.05-.03.12-.04.21-.04.17,0,.28.01.33.04.33.06.7.19,1.12.41.41.22.79.48,1.13.78.34.3.63.62.85.95.22.33.32.65.29.95-.03.25-.14.69-.35,1.32-.21.63-.47,1.4-.79,2.29s-.67,1.86-1.07,2.89c-.4,1.03-.79,2.06-1.18,3.1-.38,1.03-.76,2.02-1.12,2.95-.36.94-.65,1.73-.87,2.4-.16.61-.08.91.25.91.44,0,1.08-.44,1.92-1.32.84-.88,1.75-1.95,2.73-3.2.98-1.25,1.94-2.56,2.89-3.92.95-1.36,1.77-2.54,2.46-3.53Z"/>
    <path class="st0" d="M339.1,96.15c.19-.3.36-.41.5-.33s.23.23.29.45c.06.22.08.47.06.74-.01.28-.06.45-.14.54-.47.63-1.07,1.43-1.8,2.4-.73.96-1.58,1.91-2.56,2.83-.98.92-2.06,1.76-3.24,2.5s-2.45,1.2-3.8,1.36c-.96,1.18-2.01,2.16-3.14,2.93-1.13.77-2.29,1.16-3.47,1.16-.99,0-1.87-.22-2.62-.66s-1.4-.99-1.92-1.65c-.52-.66-.91-1.37-1.16-2.13-.25-.76-.34-1.45-.29-2.09.03-.47.16-1,.39-1.59.23-.59.52-1.2.87-1.84.34-.63.72-1.27,1.12-1.9.4-.63.8-1.21,1.22-1.73.25-1.05.66-2.05,1.24-3.01.58-.96,1.26-1.81,2.04-2.54.78-.73,1.62-1.31,2.5-1.73.88-.43,1.73-.64,2.56-.64.91,0,1.71.23,2.39.7.69.47,1.26,1.06,1.71,1.78.45.72.78,1.5.99,2.35.21.85.27,1.65.19,2.4-.08,1.05-.39,2.26-.91,3.63-.52,1.38-1.2,2.75-2.02,4.13.8-.27,1.62-.7,2.46-1.28.84-.58,1.65-1.24,2.44-1.98.78-.74,1.53-1.53,2.23-2.35.7-.83,1.33-1.64,1.88-2.44ZM320.89,108.04c.55,0,1.09-.19,1.63-.56.54-.37,1.07-.86,1.59-1.47-.96-.41-1.8-.96-2.52-1.65-.3.5-.57.97-.8,1.42-.23.45-.4.85-.5,1.18-.1.33-.1.59-.02.78.08.19.29.29.62.29ZM327.58,90.9c-.47,0-.95.1-1.45.31-.5.21-.99.48-1.49.83-.5.34-.97.76-1.42,1.24-.45.48-.86,1.01-1.22,1.59.3.03.68.12,1.14.27.45.15.9.34,1.34.58.44.23.81.51,1.09.83.29.32.42.65.39,1.01-.03.19-.14.46-.33.81-.19.34-.43.74-.72,1.2s-.62.94-.99,1.47c-.37.52-.74,1.05-1.09,1.57.83.63,1.73,1.11,2.72,1.45.44-.72.86-1.48,1.26-2.29.4-.81.74-1.6,1.03-2.37.29-.77.53-1.49.72-2.17.19-.67.32-1.26.37-1.75.14-1.65.12-2.82-.04-3.51-.17-.69-.61-1.03-1.32-1.03Z"/>
  </g>
</svg>